{
.appVersion = "895";
copyright = "Copyright 2016 [No one yet]. SIL OFL License v1.1, reserved name \"Barlow\"";
date = "2016-07-12 00:27:02 +0000";
designer = "Jeremy Tribby";
designerURL = "http://tribby.com/";
familyName = Barlow;
fontMaster = (
{
ascender = 800;
capHeight = 700;
customParameters = (
{
name = paramArea;
value = "400";
},
{
name = paramDepth;
value = "10";
},
{
name = paramOver;
value = "0";
}
);
descender = -200;
id = "262880E7-CFE1-4BDA-902E-E24798F3240A";
userData = {
GSOffsetHorizontal = 49;
GSOffsetMakeStroke = 1;
GSOffsetVertical = 48;
noodleExtremesAndInflections = 0;
noodleRemoveOverlap = 1;
noodleThickness = "50.0";
};
verticalStems = (
21
);
weight = Light;
weightValue = 23;
xHeight = 500;
},
{
ascender = 800;
capHeight = 700;
customParameters = (
{
name = paramArea;
value = "240";
},
{
name = paramDepth;
value = "9";
},
{
name = paramOver;
value = "2";
}
);
descender = -200;
id = "21D0BE0D-9149-477D-850E-37608F5C3F7D";
verticalStems = (
91
);
weightValue = 91;
xHeight = 500;
},
{
ascender = 800;
capHeight = 700;
customParameters = (
{
name = paramArea;
value = "192";
},
{
name = paramDepth;
value = "8";
},
{
name = paramOver;
value = "3";
}
);
descender = -200;
id = "4F25946F-63AC-42D6-8D55-01CF6A99025B";
userData = {
GSOffsetHorizontal = 176;
GSOffsetMakeStroke = 1;
GSOffsetVertical = 0;
noodleExtremesAndInflections = 1;
noodleRemoveOverlap = 1;
noodleThickness = "50.0";
};
verticalStems = (
188
);
weight = Bold;
weightValue = 203;
xHeight = 500;
}
);
glyphs = (
{
color = 1;
glyphname = A;
lastChange = "2016-10-08 05:03:06 +0000";
layers = (
{
layerId = "262880E7-CFE1-4BDA-902E-E24798F3240A";
paths = (
{
closed = 1;
nodes = (
"80 0 LINE",
"234 656 LINE",
"388 0 LINE",
"410 0 LINE",
"245 700 LINE",
"223 700 LINE",
"58 0 LINE"
);
},
{
closed = 1;
nodes = (
"357 145 LINE",
"357 166 LINE",
"110 166 LINE",
"110 145 LINE"
);
}
);
width = 468;
},
{
layerId = "4F25946F-63AC-42D6-8D55-01CF6A99025B";
paths = (
{
closed = 1;
nodes = (
"228 0 LINE",
"329 420 LINE",
"430 0 LINE",
"645 0 LINE",
"435 700 LINE",
"223 700 LINE",
"13 0 LINE"
);
},
{
closed = 1;
nodes = (
"479 85 LINE",
"479 243 LINE",
"179 243 LINE",
"179 85 LINE"
);
}
);
width = 658;
},
{
layerId = "21D0BE0D-9149-477D-850E-37608F5C3F7D";
paths = (
{
closed = 1;
nodes = (
"127 0 LINE",
"237 455 LINE",
"348 0 LINE",
"446 0 LINE",
"278 700 LINE",
"195 700 LINE",
"27 0 LINE"
);
},
{
closed = 1;
nodes = (
"387 101 LINE",
"387 191 LINE",
"88 191 LINE",
"88 101 LINE"
);
}
);
width = 473;
}
);
unicode = 0041;
},
{
color = 1;
glyphname = B;
lastChange = "2016-10-08 05:03:05 +0000";
layers = (
{
layerId = "262880E7-CFE1-4BDA-902E-E24798F3240A";
paths = (
{
closed = 1;
nodes = (
"246 351 LINE SMOOTH",
"361 351 OFFCURVE",
"432 415 OFFCURVE",
"432 523 CURVE SMOOTH",
"432 631 OFFCURVE",
"361 700 OFFCURVE",
"246 700 CURVE SMOOTH",
"100 700 LINE",
"100 351 LINE"
);
},
{
closed = 1;
nodes = (
"246 0 LINE SMOOTH",
"361 0 OFFCURVE",
"432 71 OFFCURVE",
"432 186 CURVE SMOOTH",
"432 301 OFFCURVE",
"361 372 OFFCURVE",
"246 372 CURVE SMOOTH",
"100 372 LINE",
"100 0 LINE"
);
},
{
closed = 1;
nodes = (
"122 351 LINE",
"246 351 LINE SMOOTH",
"348 351 OFFCURVE",
"410 288 OFFCURVE",
"410 186 CURVE SMOOTH",
"410 84 OFFCURVE",
"348 22 OFFCURVE",
"246 22 CURVE SMOOTH",
"122 22 LINE"
);
},
{
closed = 1;
nodes = (
"122 679 LINE",
"246 679 LINE SMOOTH",
"348 679 OFFCURVE",
"410 618 OFFCURVE",
"410 523 CURVE SMOOTH",
"410 428 OFFCURVE",
"348 372 OFFCURVE",
"246 372 CURVE SMOOTH",
"122 372 LINE"
);
}
);
width = 509;
},
{
layerId = "4F25946F-63AC-42D6-8D55-01CF6A99025B";
paths = (
{
closed = 1;
nodes = (
"300 328 LINE SMOOTH",
"455 328 OFFCURVE",
"549 407 OFFCURVE",
"549 528 CURVE SMOOTH",
"549 650 OFFCURVE",
"453 720 OFFCURVE",
"300 720 CURVE SMOOTH",
"48 720 LINE",
"48 328 LINE"
);
},
{
closed = 1;
nodes = (
"329 0 LINE SMOOTH",
"472 0 OFFCURVE",
"560 75 OFFCURVE",
"560 204 CURVE SMOOTH",
"560 340 OFFCURVE",
"461 426 OFFCURVE",
"299 426 CURVE",
"48 426 LINE",
"48 0 LINE"
);
},
{
closed = 1;
nodes = (
"260 286 LINE",
"300 286 LINE SMOOTH",
"331 286 OFFCURVE",
"351 265 OFFCURVE",
"351 234 CURVE SMOOTH",
"351 204 OFFCURVE",
"330 184 OFFCURVE",
"299 184 CURVE SMOOTH",
"260 184 LINE"
);
},
{
closed = 1;
nodes = (
"260 556 LINE",
"299 556 LINE",
"330 556 OFFCURVE",
"351 537 OFFCURVE",
"351 508 CURVE SMOOTH",
"351 480 OFFCURVE",
"330 462 OFFCURVE",
"299 462 CURVE",
"260 462 LINE"
);
}
);
width = 584;
},
{
layerId = "21D0BE0D-9149-477D-850E-37608F5C3F7D";
paths = (
{
closed = 1;
nodes = (
"261 322 LINE",
"374 322 OFFCURVE",
"483 393 OFFCURVE",
"483 513 CURVE SMOOTH",
"483 621 OFFCURVE",
"395 700 OFFCURVE",
"264 700 CURVE SMOOTH",
"75 700 LINE",
"75 322 LINE"
);
},
{
closed = 1;
nodes = (
"264 0 LINE",
"394 0 OFFCURVE",
"483 82 OFFCURVE",
"483 197 CURVE SMOOTH",
"483 324 OFFCURVE",
"376 398 OFFCURVE",
"261 398 CURVE SMOOTH",
"75 398 LINE",
"75 0 LINE"
);
},
{
closed = 1;
nodes = (
"172 322 LINE",
"261 322 LINE SMOOTH",
"338 322 OFFCURVE",
"387 277 OFFCURVE",
"387 206 CURVE SMOOTH",
"387 135 OFFCURVE",
"338 91 OFFCURVE",
"261 91 CURVE SMOOTH",
"172 91 LINE"
);
},
{
closed = 1;
nodes = (
"172 609 LINE",
"261 609 LINE SMOOTH",
"338 609 OFFCURVE",
"387 567 OFFCURVE",
"387 504 CURVE SMOOTH",
"387 440 OFFCURVE",
"338 398 OFFCURVE",
"261 398 CURVE SMOOTH",
"172 398 LINE"
);
}
);
width = 531;
}
);
unicode = 0042;
},
{
color = 1;
glyphname = C;
lastChange = "2016-10-08 05:03:05 +0000";
layers = (
{
layerId = "262880E7-CFE1-4BDA-902E-E24798F3240A";
paths = (
{
closed = 1;
nodes = (
"352 -11 OFFCURVE",
"414 50 OFFCURVE",
"414 150 CURVE SMOOTH",
"414 152 LINE",
"392 152 LINE",
"392 150 LINE SMOOTH",
"392 64 OFFCURVE",
"340 11 OFFCURVE",
"253 11 CURVE SMOOTH",
"166 11 OFFCURVE",
"114 64 OFFCURVE",
"114 150 CURVE SMOOTH",
"114 550 LINE SMOOTH",
"114 637 OFFCURVE",
"168 690 OFFCURVE",
"253 690 CURVE SMOOTH",
"338 690 OFFCURVE",
"392 637 OFFCURVE",
"392 550 CURVE SMOOTH",
"392 548 LINE",
"414 548 LINE",
"414 550 LINE SMOOTH",
"414 650 OFFCURVE",
"352 711 OFFCURVE",
"253 711 CURVE SMOOTH",
"154 711 OFFCURVE",
"92 650 OFFCURVE",
"92 550 CURVE SMOOTH",
"92 150 LINE SMOOTH",
"92 50 OFFCURVE",
"154 -11 OFFCURVE",
"253 -11 CURVE SMOOTH"
);
}
);
width = 479;
},
{
layerId = "4F25946F-63AC-42D6-8D55-01CF6A99025B";
paths = (
{
closed = 1;
nodes = (
"432 -10 OFFCURVE",
"547 76 OFFCURVE",
"547 183 CURVE SMOOTH",
"547 278 LINE",
"335 278 LINE",
"335 223 LINE SMOOTH",
"335 197 OFFCURVE",
"314 178 OFFCURVE",
"291 178 CURVE SMOOTH",
"268 178 OFFCURVE",
"247 197 OFFCURVE",
"247 223 CURVE SMOOTH",
"247 477 LINE SMOOTH",
"247 503 OFFCURVE",
"268 522 OFFCURVE",
"291 522 CURVE SMOOTH",
"314 522 OFFCURVE",
"335 503 OFFCURVE",
"335 477 CURVE SMOOTH",
"335 422 LINE",
"547 422 LINE",
"547 517 LINE SMOOTH",
"547 624 OFFCURVE",
"432 710 OFFCURVE",
"291 710 CURVE SMOOTH",
"150 710 OFFCURVE",
"35 624 OFFCURVE",
"35 517 CURVE SMOOTH",
"35 183 LINE SMOOTH",
"35 76 OFFCURVE",
"150 -10 OFFCURVE",
"291 -10 CURVE SMOOTH"
);
}
);
width = 575;
},
{
layerId = "21D0BE0D-9149-477D-850E-37608F5C3F7D";
paths = (
{
closed = 1;
nodes = (
"374 -9 OFFCURVE",
"451 61 OFFCURVE",
"451 170 CURVE SMOOTH",
"451 208 LINE",
"354 208 LINE",
"354 170 LINE SMOOTH",
"354 112 OFFCURVE",
"320 82 OFFCURVE",
"257 82 CURVE SMOOTH",
"193 82 OFFCURVE",
"159 112 OFFCURVE",
"159 170 CURVE SMOOTH",
"159 530 LINE SMOOTH",
"159 587 OFFCURVE",
"194 619 OFFCURVE",
"257 619 CURVE SMOOTH",
"319 619 OFFCURVE",
"354 587 OFFCURVE",
"354 530 CURVE SMOOTH",
"354 492 LINE",
"451 492 LINE",
"451 530 LINE SMOOTH",
"451 639 OFFCURVE",
"374 708 OFFCURVE",
"257 708 CURVE SMOOTH",
"139 708 OFFCURVE",
"62 639 OFFCURVE",
"62 530 CURVE SMOOTH",
"62 170 LINE SMOOTH",
"62 61 OFFCURVE",
"139 -9 OFFCURVE",
"257 -9 CURVE SMOOTH"
);
}
);
width = 492;
}
);
unicode = 0043;
},
{
color = 1;
glyphname = D;
lastChange = "2016-10-08 05:03:06 +0000";
layers = (
{
layerId = "262880E7-CFE1-4BDA-902E-E24798F3240A";
paths = (
{
closed = 1;
nodes = (
"261 0 LINE SMOOTH",
"361 0 OFFCURVE",
"422 61 OFFCURVE",
"422 161 CURVE SMOOTH",
"422 539 LINE SMOOTH",
"422 639 OFFCURVE",
"361 700 OFFCURVE",
"261 700 CURVE SMOOTH",
"100 700 LINE",
"100 0 LINE"
);
},
{
closed = 1;
nodes = (
"122 679 LINE",
"261 679 LINE SMOOTH",
"347 679 OFFCURVE",
"400 626 OFFCURVE",
"400 539 CURVE SMOOTH",
"400 161 LINE SMOOTH",
"400 75 OFFCURVE",
"347 22 OFFCURVE",
"261 22 CURVE SMOOTH",
"122 22 LINE"
);
}
);
width = 512;
},
{
layerId = "4F25946F-63AC-42D6-8D55-01CF6A99025B";
paths = (
{
closed = 1;
nodes = (
"334 0 LINE SMOOTH",
"470 0 OFFCURVE",
"560 77 OFFCURVE",
"560 193 CURVE SMOOTH",
"560 507 LINE SMOOTH",
"560 623 OFFCURVE",
"470 700 OFFCURVE",
"334 700 CURVE SMOOTH",
"48 700 LINE",
"48 0 LINE"
);
},
{
closed = 1;
nodes = (
"260 512 LINE",
"304 512 LINE SMOOTH",
"330 512 OFFCURVE",
"348 494 OFFCURVE",
"348 467 CURVE SMOOTH",
"348 233 LINE SMOOTH",
"348 206 OFFCURVE",
"330 188 OFFCURVE",
"304 188 CURVE SMOOTH",
"260 188 LINE"
);
}
);
width = 595;
},
{
layerId = "21D0BE0D-9149-477D-850E-37608F5C3F7D";
paths = (
{
closed = 1;
nodes = (
"270 0 LINE",
"388 0 OFFCURVE",
"464 71 OFFCURVE",
"464 181 CURVE SMOOTH",
"464 519 LINE SMOOTH",
"464 629 OFFCURVE",
"388 700 OFFCURVE",
"270 700 CURVE SMOOTH",
"75 700 LINE",
"75 0 LINE"
);
},
{
closed = 1;
nodes = (
"172 609 LINE",
"270 609 LINE SMOOTH",
"333 609 OFFCURVE",
"367 578 OFFCURVE",
"367 519 CURVE SMOOTH",
"367 181 LINE SMOOTH",
"367 123 OFFCURVE",
"333 92 OFFCURVE",
"270 92 CURVE SMOOTH",
"172 92 LINE"
);
}
);
width = 525;
}
);
unicode = 0044;
},
{
color = 1;
glyphname = E;
lastChange = "2016-10-08 05:03:06 +0000";
layers = (
{
layerId = "262880E7-CFE1-4BDA-902E-E24798F3240A";
paths = (
{
closed = 1;
nodes = (
"421 0 LINE",
"421 22 LINE",
"122 22 LINE",
"122 679 LINE",
"421 679 LINE",
"421 700 LINE",
"100 700 LINE",
"100 0 LINE"
);
},
{
closed = 1;
nodes = (
"316 340 LINE",
"316 361 LINE",
"111 361 LINE",
"111 340 LINE"
);
}
);
width = 477;
},
{
layerId = "4F25946F-63AC-42D6-8D55-01CF6A99025B";
paths = (
{
closed = 1;
nodes = (
"504 0 LINE",
"504 188 LINE",
"260 188 LINE",
"260 512 LINE",
"504 512 LINE",
"504 700 LINE",
"48 700 LINE",
"48 0 LINE"
);
},
{
closed = 1;
nodes = (
"424 266 LINE",
"424 434 LINE",
"174 434 LINE",
"174 266 LINE"
);
}
);
width = 536;
},
{
layerId = "21D0BE0D-9149-477D-850E-37608F5C3F7D";
paths = (
{
closed = 1;
nodes = (
"462 0 LINE",
"462 92 LINE",
"172 92 LINE",
"172 609 LINE",
"462 609 LINE",
"462 700 LINE",
"75 700 LINE",
"75 0 LINE"
);
},
{
closed = 1;
nodes = (
"360 306 LINE",
"360 395 LINE",
"86 395 LINE",
"86 306 LINE"
);
}
);
width = 497;
}
);
unicode = 0045;
},
{
color = 1;
glyphname = F;
lastChange = "2016-10-08 05:03:05 +0000";
layers = (
{
layerId = "262880E7-CFE1-4BDA-902E-E24798F3240A";
paths = (
{
closed = 1;
nodes = (
"122 0 LINE",
"122 679 LINE",
"421 679 LINE",
"421 700 LINE",
"100 700 LINE",
"100 0 LINE"
);
},
{
closed = 1;
nodes = (
"316 340 LINE",
"316 361 LINE",
"111 361 LINE",
"111 340 LINE"
);
}
);
width = 474;
},
{
layerId = "4F25946F-63AC-42D6-8D55-01CF6A99025B";
paths = (
{
closed = 1;
nodes = (
"260 0 LINE",
"260 512 LINE",
"504 512 LINE",
"504 700 LINE",
"48 700 LINE",
"48 0 LINE"
);
},
{
closed = 1;
nodes = (
"424 266 LINE",
"424 434 LINE",
"174 434 LINE",
"174 266 LINE"
);
}
);
width = 525;
},
{
layerId = "21D0BE0D-9149-477D-850E-37608F5C3F7D";
paths = (
{
closed = 1;
nodes = (
"172 0 LINE",
"172 609 LINE",
"463 609 LINE",
"463 700 LINE",
"75 700 LINE",
"75 0 LINE"
);
},
{
closed = 1;
nodes = (
"360 306 LINE",
"360 395 LINE",
"86 395 LINE",
"86 306 LINE"
);
}
);
width = 489;
}
);
unicode = 0046;
},
{
color = 1;
glyphname = G;
lastChange = "2016-10-08 05:03:06 +0000";
layers = (
{
layerId = "262880E7-CFE1-4BDA-902E-E24798F3240A";
paths = (
{
closed = 1;
nodes = (
"352 -11 OFFCURVE",
"414 51 OFFCURVE",
"414 150 CURVE",
"414 361 LINE",
"253 361 LINE",
"253 340 LINE",
"392 340 LINE",
"392 150 LINE",
"392 63 OFFCURVE",
"340 11 OFFCURVE",
"253 11 CURVE SMOOTH",
"166 11 OFFCURVE",
"114 63 OFFCURVE",
"114 150 CURVE",
"114 550 LINE",
"114 637 OFFCURVE",
"166 690 OFFCURVE",
"253 690 CURVE SMOOTH",
"340 690 OFFCURVE",
"392 637 OFFCURVE",
"392 550 CURVE",
"414 550 LINE",
"414 649 OFFCURVE",
"352 711 OFFCURVE",
"253 711 CURVE SMOOTH",
"154 711 OFFCURVE",
"92 649 OFFCURVE",
"92 550 CURVE",
"92 150 LINE",
"92 51 OFFCURVE",
"154 -11 OFFCURVE",
"253 -11 CURVE SMOOTH"
);
}
);
width = 494;
},
{
layerId = "4F25946F-63AC-42D6-8D55-01CF6A99025B";
paths = (
{
closed = 1;
nodes = (
"448 -10 OFFCURVE",
"545 83 OFFCURVE",
"545 234 CURVE SMOOTH",
"545 400 LINE",
"289 400 LINE",
"289 270 LINE",
"333 270 LINE",
"333 234 LINE SMOOTH",
"333 200 OFFCURVE",
"315 178 OFFCURVE",
"289 178 CURVE SMOOTH",
"263 178 OFFCURVE",
"245 200 OFFCURVE",
"245 234 CURVE SMOOTH",
"245 466 LINE SMOOTH",
"245 500 OFFCURVE",
"263 522 OFFCURVE",
"289 522 CURVE SMOOTH",
"315 522 OFFCURVE",
"333 500 OFFCURVE",
"333 466 CURVE",
"545 466 LINE",
"545 617 OFFCURVE",
"448 710 OFFCURVE",
"289 710 CURVE SMOOTH",
"130 710 OFFCURVE",
"33 617 OFFCURVE",
"33 466 CURVE SMOOTH",
"33 234 LINE SMOOTH",
"33 83 OFFCURVE",
"130 -10 OFFCURVE",
"289 -10 CURVE SMOOTH"
);
}
);
width = 575;
},
{
layerId = "21D0BE0D-9149-477D-850E-37608F5C3F7D";
paths = (
{
closed = 1;
nodes = (
"374 -9 OFFCURVE",
"451 62 OFFCURVE",
"451 170 CURVE",
"451 395 LINE",
"261 395 LINE",
"261 306 LINE",
"354 306 LINE",
"354 170 LINE",
"354 112 OFFCURVE",
"321 82 OFFCURVE",
"257 82 CURVE SMOOTH",
"192 82 OFFCURVE",
"159 112 OFFCURVE",
"159 170 CURVE",
"159 530 LINE",
"159 588 OFFCURVE",
"193 619 OFFCURVE",
"257 619 CURVE SMOOTH",
"320 619 OFFCURVE",
"354 588 OFFCURVE",
"354 530 CURVE",
"451 530 LINE",
"451 638 OFFCURVE",
"374 709 OFFCURVE",
"257 709 CURVE SMOOTH",
"139 709 OFFCURVE",
"62 638 OFFCURVE",
"62 530 CURVE",
"62 170 LINE",
"62 62 OFFCURVE",
"139 -9 OFFCURVE",
"257 -9 CURVE SMOOTH"
);
}
);
width = 504;
}
);
unicode = 0047;
},
{
color = 1;
glyphname = H;
lastChange = "2016-10-08 05:03:06 +0000";
layers = (
{
layerId = "262880E7-CFE1-4BDA-902E-E24798F3240A";
paths = (
{
closed = 1;
nodes = (
"422 0 LINE",
"422 700 LINE",
"400 700 LINE",
"400 0 LINE"
);
},
{
closed = 1;
nodes = (
"122 0 LINE",
"122 700 LINE",
"100 700 LINE",
"100 0 LINE"
);
},
{
closed = 1;
nodes = (
"405 340 LINE",
"405 361 LINE",
"117 361 LINE",
"117 340 LINE"
);
}
);
width = 522;
},
{
layerId = "4F25946F-63AC-42D6-8D55-01CF6A99025B";
paths = (
{
closed = 1;
nodes = (
"560 0 LINE",
"560 700 LINE",
"348 700 LINE",
"348 0 LINE"
);
},
{
closed = 1;
nodes = (
"260 0 LINE",
"260 700 LINE",
"48 700 LINE",
"48 0 LINE"
);
},
{
closed = 1;
nodes = (
"364 256 LINE",
"364 444 LINE",
"244 444 LINE",
"244 256 LINE"
);
}
);
width = 608;
},
{
layerId = "21D0BE0D-9149-477D-850E-37608F5C3F7D";
paths = (
{
closed = 1;
nodes = (
"459 0 LINE",
"459 700 LINE",
"362 700 LINE",
"362 0 LINE"
);
},
{
closed = 1;
nodes = (
"172 0 LINE",
"172 700 LINE",
"75 700 LINE",
"75 0 LINE"
);
},
{
closed = 1;
nodes = (
"445 306 LINE",
"445 395 LINE",
"90 395 LINE",
"90 306 LINE"
);
}
);
width = 534;
}
);
unicode = 0048;
},
{
color = 1;
glyphname = I;
lastChange = "2016-10-08 05:03:06 +0000";
layers = (
{
layerId = "262880E7-CFE1-4BDA-902E-E24798F3240A";
paths = (
{
closed = 1;
nodes = (
"122 0 LINE",
"122 700 LINE",
"100 700 LINE",
"100 0 LINE"
);
}
);
width = 222;
},
{
layerId = "4F25946F-63AC-42D6-8D55-01CF6A99025B";
paths = (
{
closed = 1;
nodes = (
"250 0 LINE",
"250 700 LINE",
"48 700 LINE",
"48 0 LINE"
);
}
);
width = 298;
},
{
layerId = "21D0BE0D-9149-477D-850E-37608F5C3F7D";
paths = (
{
closed = 1;
nodes = (
"172 0 LINE",
"172 700 LINE",
"75 700 LINE",
"75 0 LINE"
);
}
);
width = 247;
}
);
unicode = 0049;
},
{
color = 1;
glyphname = J;
lastChange = "2016-10-08 05:03:06 +0000";
layers = (
{
layerId = "262880E7-CFE1-4BDA-902E-E24798F3240A";
paths = (
{
closed = 1;
nodes = (
"317 -11 OFFCURVE",
"377 50 OFFCURVE",
"377 150 CURVE SMOOTH",
"377 700 LINE",
"355 700 LINE",
"355 150 LINE",
"355 64 OFFCURVE",
"303 11 OFFCURVE",
"219 11 CURVE SMOOTH",
"135 11 OFFCURVE",
"83 64 OFFCURVE",
"83 150 CURVE SMOOTH",
"83 195 LINE",
"61 195 LINE",
"61 150 LINE SMOOTH",
"61 50 OFFCURVE",
"121 -11 OFFCURVE",
"219 -11 CURVE SMOOTH"
);
}
);
width = 473;
},
{
layerId = "4F25946F-63AC-42D6-8D55-01CF6A99025B";
paths = (
{
closed = 1;
nodes = (
"420 -10 OFFCURVE",
"520 88 OFFCURVE",
"520 235 CURVE",
"515 702 LINE",
"303 700 LINE",
"308 233 LINE",
"308 190 OFFCURVE",
"295 178 OFFCURVE",
"269 178 CURVE SMOOTH",
"243 178 OFFCURVE",
"230 190 OFFCURVE",
"230 234 CURVE SMOOTH",
"230 290 LINE",
"18 290 LINE",
"18 234 LINE SMOOTH",
"18 88 OFFCURVE",
"118 -10 OFFCURVE",
"269 -10 CURVE SMOOTH"
);
}
);
width = 559;
},
{
layerId = "21D0BE0D-9149-477D-850E-37608F5C3F7D";
paths = (
{
closed = 1;
nodes = (
"339 -10 OFFCURVE",
"414 60 OFFCURVE",
"414 170 CURVE SMOOTH",
"414 699 LINE",
"318 699 LINE",
"318 170 LINE",
"318 112 OFFCURVE",
"284 82 OFFCURVE",
"223 82 CURVE SMOOTH",
"162 82 OFFCURVE",
"129 112 OFFCURVE",
"129 170 CURVE SMOOTH",
"129 246 LINE",
"32 246 LINE",
"32 170 LINE SMOOTH",
"32 60 OFFCURVE",
"107 -10 OFFCURVE",
"223 -10 CURVE SMOOTH"
);
}
);
width = 483;
}
);
unicode = 004A;
},
{
color = 1;
glyphname = K;
lastChange = "2016-10-08 05:03:05 +0000";
layers = (
{
layerId = "262880E7-CFE1-4BDA-902E-E24798F3240A";
paths = (
{
closed = 1;
nodes = (
"432 0 LINE",
"136 350 LINE",
"432 700 LINE",
"406 700 LINE",
"108 350 LINE",
"406 0 LINE"
);
},
{
closed = 1;
nodes = (
"122 0 LINE",
"122 700 LINE",
"100 700 LINE",
"100 0 LINE"
);
}
);
width = 487;
},
{
layerId = "4F25946F-63AC-42D6-8D55-01CF6A99025B";
paths = (
{
closed = 1;
nodes = (
"585 0 LINE",
"408 350 LINE",
"580 700 LINE",
"330 700 LINE",
"180 350 LINE",
"330 0 LINE"
);
},
{
closed = 1;
nodes = (
"260 0 LINE",
"260 700 LINE",
"48 700 LINE",
"48 0 LINE"
);
}
);
width = 599;
},
{
layerId = "21D0BE0D-9149-477D-850E-37608F5C3F7D";
paths = (
{
closed = 1;
nodes = (
"479 0 LINE",
"225 350 LINE",
"479 700 LINE",
"361 700 LINE",
"110 350 LINE",
"361 0 LINE"
);
},
{
closed = 1;
nodes = (
"172 0 LINE",
"172 700 LINE",
"75 700 LINE",
"75 0 LINE"
);
}
);
width = 503;
}
);
unicode = 004B;
},
{
color = 1;
glyphname = L;
lastChange = "2016-10-08 05:03:06 +0000";
layers = (
{
layerId = "262880E7-CFE1-4BDA-902E-E24798F3240A";
paths = (
{
closed = 1;
nodes = (
"411 0 LINE",
"411 22 LINE",
"122 22 LINE",
"122 700 LINE",
"100 700 LINE",
"100 0 LINE"
);
}
);
width = 464;
},
{
layerId = "4F25946F-63AC-42D6-8D55-01CF6A99025B";
paths = (
{
closed = 1;
nodes = (
"495 0 LINE",
"495 202 LINE",
"260 202 LINE",
"260 700 LINE",
"48 700 LINE",
"48 0 LINE"
);
}
);
width = 516;
},
{
layerId = "21D0BE0D-9149-477D-850E-37608F5C3F7D";
paths = (
{
closed = 1;
nodes = (
"452 0 LINE",
"452 92 LINE",
"171 92 LINE",
"171 700 LINE",
"75 700 LINE",
"75 0 LINE"
);
}
);
width = 478;
}
);
unicode = 004C;
},
{
color = 1;
glyphname = M;
lastChange = "2016-10-08 05:03:06 +0000";
layers = (
{
layerId = "262880E7-CFE1-4BDA-902E-E24798F3240A";
paths = (
{
closed = 1;
nodes = (
"119 0 LINE",
"122 655 LINE",
"279 324 LINE",
"437 655 LINE",
"437 0 LINE",
"458 0 LINE",
"458 700 LINE",
"436 700 LINE",
"279 372 LINE",
"122 700 LINE",
"100 700 LINE",
"100 0 LINE"
);
}
);
width = 558;
},
{
layerId = "4F25946F-63AC-42D6-8D55-01CF6A99025B";
paths = (
{
closed = 1;
nodes = (
"260 0 LINE",
"260 341 LINE",
"342 176 LINE",
"424 339 LINE",
"424 0 LINE",
"636 0 LINE",
"636 698 LINE",
"420 698 LINE",
"342 522 LINE",
"261 702 LINE",
"48 702 LINE",
"48 0 LINE"
);
}
);
width = 684;
},
{
associatedMasterId = "262880E7-CFE1-4BDA-902E-E24798F3240A";
layerId = "B3029029-8026-4901-990A-76228C2D179C";
width = 600;
},
{
associatedMasterId = "262880E7-CFE1-4BDA-902E-E24798F3240A";
layerId = "59CB0402-E5A9-408B-857A-05EE50EAFC2E";
paths = (
{
closed = 1;
nodes = (
"267 0 LINE",
"267 337 LINE",
"341 172 LINE",
"415 337 LINE",
"415 0 LINE",
"627 0 LINE",
"627 698 LINE",
"411 698 LINE",
"341 498 LINE",
"268 702 LINE",
"55 702 LINE",
"55 0 LINE"
);
}
);
width = 682;
},
{
layerId = "21D0BE0D-9149-477D-850E-37608F5C3F7D";
paths = (
{
closed = 1;
nodes = (
"169 0 LINE",
"171 463 LINE",
"287 241 LINE",
"403 462 LINE",
"403 0 LINE",
"500 0 LINE",
"500 700 LINE",
"416 700 LINE",
"287 455 LINE",
"158 700 LINE",
"75 700 LINE",
"75 0 LINE"
);
}
);
width = 575;
}
);
unicode = 004D;
},
{
color = 1;
glyphname = N;
lastChange = "2016-10-08 05:03:06 +0000";
layers = (
{
layerId = "262880E7-CFE1-4BDA-902E-E24798F3240A";
paths = (
{
closed = 1;
nodes = (
"122 0 LINE",
"122 647 LINE",
"399 0 LINE",
"422 0 LINE",
"422 700 LINE",
"400 700 LINE",
"400 53 LINE",
"123 700 LINE",
"100 700 LINE",
"100 0 LINE"
);
}
);
width = 522;
},
{
layerId = "4F25946F-63AC-42D6-8D55-01CF6A99025B";
paths = (
{
closed = 1;
nodes = (
"260 0 LINE",
"260 264 LINE",
"389 0 LINE",
"580 0 LINE",
"580 700 LINE",
"368 700 LINE",
"368 417 LINE",
"236 700 LINE",
"48 700 LINE",
"48 0 LINE"
);
}
);
width = 628;
},
{
layerId = "21D0BE0D-9149-477D-850E-37608F5C3F7D";
paths = (
{
closed = 1;
nodes = (
"172 0 LINE",
"172 438 LINE",
"374 0 LINE",
"459 0 LINE",
"459 700 LINE",
"362 700 LINE",
"362 262 LINE",
"160 700 LINE",
"75 700 LINE",
"75 0 LINE"
);
}
);
width = 534;
}
);
unicode = 004E;
},
{
color = 1;
glyphname = O;
lastChange = "2016-10-08 05:03:05 +0000";
layers = (
{
layerId = "262880E7-CFE1-4BDA-902E-E24798F3240A";
paths = (
{
closed = 1;
nodes = (
"341 -11 OFFCURVE",
"413 60 OFFCURVE",
"413 150 CURVE SMOOTH",
"413 550 LINE SMOOTH",
"413 640 OFFCURVE",
"341 711 OFFCURVE",
"252 711 CURVE SMOOTH",
"163 711 OFFCURVE",
"91 640 OFFCURVE",
"91 550 CURVE SMOOTH",
"91 150 LINE SMOOTH",
"91 60 OFFCURVE",
"163 -11 OFFCURVE",
"252 -11 CURVE SMOOTH"
);
},
{
closed = 1;
nodes = (
"173 11 OFFCURVE",
"113 72 OFFCURVE",
"113 150 CURVE SMOOTH",
"113 550 LINE SMOOTH",
"113 629 OFFCURVE",
"175 690 OFFCURVE",
"252 690 CURVE SMOOTH",
"329 690 OFFCURVE",
"391 629 OFFCURVE",
"391 550 CURVE SMOOTH",
"391 150 LINE SMOOTH",
"391 72 OFFCURVE",
"331 11 OFFCURVE",
"252 11 CURVE SMOOTH"
);
}
);
width = 504;
},
{
layerId = "4F25946F-63AC-42D6-8D55-01CF6A99025B";
paths = (
{
closed = 1;
nodes = (
"458 -10 OFFCURVE",
"545 73 OFFCURVE",
"545 233 CURVE SMOOTH",
"545 467 LINE SMOOTH",
"545 627 OFFCURVE",
"458 710 OFFCURVE",
"289 710 CURVE SMOOTH",
"120 710 OFFCURVE",
"33 627 OFFCURVE",
"33 467 CURVE SMOOTH",
"33 233 LINE SMOOTH",
"33 73 OFFCURVE",
"120 -10 OFFCURVE",
"289 -10 CURVE SMOOTH"
);
},
{
closed = 1;
nodes = (
"263 178 OFFCURVE",
"245 196 OFFCURVE",
"245 223 CURVE SMOOTH",
"245 477 LINE SMOOTH",
"245 504 OFFCURVE",
"263 522 OFFCURVE",
"289 522 CURVE SMOOTH",
"315 522 OFFCURVE",
"333 504 OFFCURVE",
"333 477 CURVE SMOOTH",
"333 223 LINE SMOOTH",
"333 196 OFFCURVE",
"315 178 OFFCURVE",
"289 178 CURVE SMOOTH"
);
}
);
width = 578;
},
{
layerId = "21D0BE0D-9149-477D-850E-37608F5C3F7D";
paths = (
{
closed = 1;
nodes = (
"364 -9 OFFCURVE",
"450 70 OFFCURVE",
"450 170 CURVE SMOOTH",
"450 530 LINE SMOOTH",
"450 630 OFFCURVE",
"364 709 OFFCURVE",
"256 709 CURVE SMOOTH",
"148 709 OFFCURVE",
"61 630 OFFCURVE",
"61 530 CURVE SMOOTH",
"61 170 LINE SMOOTH",
"61 70 OFFCURVE",
"148 -9 OFFCURVE",
"256 -9 CURVE SMOOTH"
);
},
{
closed = 1;
nodes = (
"201 82 OFFCURVE",
"158 120 OFFCURVE",
"158 170 CURVE SMOOTH",
"158 530 LINE SMOOTH",
"158 580 OFFCURVE",
"202 619 OFFCURVE",
"256 619 CURVE SMOOTH",
"309 619 OFFCURVE",
"353 580 OFFCURVE",
"353 530 CURVE SMOOTH",
"353 170 LINE SMOOTH",
"353 120 OFFCURVE",
"310 82 OFFCURVE",
"256 82 CURVE SMOOTH"
);
}
);
width = 511;
}
);
unicode = 004F;
},
{
color = 1;
glyphname = P;
lastChange = "2016-10-08 05:03:06 +0000";
layers = (
{
layerId = "262880E7-CFE1-4BDA-902E-E24798F3240A";
paths = (
{
closed = 1;
nodes = (
"122 0 LINE",
"122 679 LINE",
"246 679 LINE SMOOTH",
"346 679 OFFCURVE",
"407 616 OFFCURVE",
"407 513 CURVE SMOOTH",
"407 409 OFFCURVE",
"346 346 OFFCURVE",
"246 346 CURVE SMOOTH",
"117 346 LINE",
"117 324 LINE",
"246 325 LINE SMOOTH",
"359 326 OFFCURVE",
"429 397 OFFCURVE",
"429 512 CURVE SMOOTH",
"429 629 OFFCURVE",
"359 700 OFFCURVE",
"246 700 CURVE SMOOTH",
"100 700 LINE",
"100 0 LINE"
);
}
);
width = 493;
},
{
layerId = "4F25946F-63AC-42D6-8D55-01CF6A99025B";
paths = (
{
closed = 1;
nodes = (
"260 0 LINE",
"260 512 LINE",
"289 512 LINE SMOOTH",
"319 512 OFFCURVE",
"338 493 OFFCURVE",
"338 462 CURVE SMOOTH",
"338 431 OFFCURVE",
"319 412 OFFCURVE",
"289 412 CURVE SMOOTH",
"244 412 LINE",
"244 233 LINE",
"319 233 LINE SMOOTH",
"458 233 OFFCURVE",
"550 333 OFFCURVE",
"550 483 CURVE SMOOTH",
"550 613 OFFCURVE",
"458 700 OFFCURVE",
"319 700 CURVE SMOOTH",
"48 700 LINE",
"48 0 LINE"
);
}
);
width = 570;
},
{
layerId = "21D0BE0D-9149-477D-850E-37608F5C3F7D";
paths = (
{
closed = 1;
nodes = (
"172 0 LINE",
"172 609 LINE",
"255 609 LINE SMOOTH",
"327 609 OFFCURVE",
"375 567 OFFCURVE",
"375 502 CURVE SMOOTH",
"375 435 OFFCURVE",
"327 391 OFFCURVE",
"255 391 CURVE SMOOTH",
"93 391 LINE",
"92 300 LINE",
"256 300 LINE SMOOTH",
"386 300 OFFCURVE",
"471 379 OFFCURVE",
"471 501 CURVE SMOOTH",
"471 621 OFFCURVE",
"385 700 OFFCURVE",
"255 700 CURVE SMOOTH",
"75 700 LINE",
"75 0 LINE"
);
}
);
width = 504;
}
);
unicode = 0050;
},
{
color = 1;
glyphname = Q;
lastChange = "2016-10-08 05:03:06 +0000";
layers = (
{
layerId = "262880E7-CFE1-4BDA-902E-E24798F3240A";
paths = (
{
closed = 1;
nodes = (
"341 -11 OFFCURVE",
"413 60 OFFCURVE",
"413 150 CURVE SMOOTH",
"413 550 LINE SMOOTH",
"413 640 OFFCURVE",
"341 711 OFFCURVE",
"252 711 CURVE SMOOTH",
"163 711 OFFCURVE",
"91 640 OFFCURVE",
"91 550 CURVE SMOOTH",
"91 150 LINE SMOOTH",
"91 60 OFFCURVE",
"163 -11 OFFCURVE",
"252 -11 CURVE SMOOTH"
);
},
{
closed = 1;
nodes = (
"173 11 OFFCURVE",
"113 72 OFFCURVE",
"113 150 CURVE SMOOTH",
"113 550 LINE SMOOTH",
"113 629 OFFCURVE",
"175 690 OFFCURVE",
"252 690 CURVE SMOOTH",
"329 690 OFFCURVE",
"391 629 OFFCURVE",
"391 550 CURVE SMOOTH",
"391 150 LINE SMOOTH",
"391 72 OFFCURVE",
"331 11 OFFCURVE",
"252 11 CURVE SMOOTH"
);
}
);
width = 504;
},
{
layerId = "4F25946F-63AC-42D6-8D55-01CF6A99025B";
paths = (
{
closed = 1;
nodes = (
"458 -10 OFFCURVE",
"545 73 OFFCURVE",
"545 233 CURVE SMOOTH",
"545 467 LINE SMOOTH",
"545 627 OFFCURVE",
"458 710 OFFCURVE",
"289 710 CURVE SMOOTH",
"120 710 OFFCURVE",
"33 627 OFFCURVE",
"33 467 CURVE SMOOTH",
"33 233 LINE SMOOTH",
"33 73 OFFCURVE",
"120 -10 OFFCURVE",
"289 -10 CURVE SMOOTH"
);
},
{
closed = 1;
nodes = (
"266 178 OFFCURVE",
"245 197 OFFCURVE",
"245 223 CURVE SMOOTH",
"245 477 LINE SMOOTH",
"245 503 OFFCURVE",
"266 522 OFFCURVE",
"289 522 CURVE SMOOTH",
"312 522 OFFCURVE",
"333 503 OFFCURVE",
"333 477 CURVE SMOOTH",
"333 223 LINE SMOOTH",
"333 197 OFFCURVE",
"312 178 OFFCURVE",
"289 178 CURVE SMOOTH"
);
}
);
width = 578;
},
{
layerId = "21D0BE0D-9149-477D-850E-37608F5C3F7D";
paths = (
{
closed = 1;
nodes = (
"364 -9 OFFCURVE",
"450 70 OFFCURVE",
"450 170 CURVE SMOOTH",
"450 530 LINE SMOOTH",
"450 630 OFFCURVE",
"364 709 OFFCURVE",
"256 709 CURVE SMOOTH",
"148 709 OFFCURVE",
"61 630 OFFCURVE",
"61 530 CURVE SMOOTH",
"61 170 LINE SMOOTH",
"61 70 OFFCURVE",
"148 -9 OFFCURVE",
"256 -9 CURVE SMOOTH"
);
},
{
closed = 1;
nodes = (
"201 82 OFFCURVE",
"158 120 OFFCURVE",
"158 170 CURVE SMOOTH",
"158 530 LINE SMOOTH",
"158 580 OFFCURVE",
"202 619 OFFCURVE",
"256 619 CURVE SMOOTH",
"309 619 OFFCURVE",
"353 580 OFFCURVE",
"353 530 CURVE SMOOTH",
"353 170 LINE SMOOTH",
"353 120 OFFCURVE",
"310 82 OFFCURVE",
"256 82 CURVE SMOOTH"
);
}
);
width = 511;
}
);
unicode = 0051;
},
{
color = 1;
glyphname = R;
lastChange = "2016-10-08 05:03:06 +0000";
layers = (
{
layerId = "262880E7-CFE1-4BDA-902E-E24798F3240A";
paths = (
{
closed = 1;
nodes = (
"122 0 LINE",
"122 679 LINE",
"249 679 LINE SMOOTH",
"349 679 OFFCURVE",
"410 616 OFFCURVE",
"410 512 CURVE SMOOTH",
"410 408 OFFCURVE",
"349 344 OFFCURVE",
"249 344 CURVE SMOOTH",
"117 344 LINE",
"117 322 LINE",
"249 323 LINE SMOOTH",
"362 324 OFFCURVE",
"432 395 OFFCURVE",
"432 511 CURVE SMOOTH",
"432 628 OFFCURVE",
"362 700 OFFCURVE",
"249 700 CURVE SMOOTH",
"100 700 LINE",
"100 0 LINE"
);
},
{
closed = 1;
nodes = (
"411 0 LINE",
"269 343 LINE",
"249 335 LINE",
"387 0 LINE"
);
}
);
width = 498;
},
{
layerId = "4F25946F-63AC-42D6-8D55-01CF6A99025B";
paths = (
{
closed = 1;
nodes = (
"260 0 LINE",
"260 512 LINE",
"307 512 LINE SMOOTH",
"337 512 OFFCURVE",
"356 493 OFFCURVE",
"356 462 CURVE SMOOTH",
"356 431 OFFCURVE",
"337 412 OFFCURVE",
"307 412 CURVE SMOOTH",
"244 412 LINE",
"244 233 LINE",
"337 233 LINE SMOOTH",
"476 233 OFFCURVE",
"569 323 OFFCURVE",
"569 463 CURVE SMOOTH",
"569 603 OFFCURVE",
"476 700 OFFCURVE",
"337 700 CURVE SMOOTH",
"48 700 LINE",
"48 0 LINE"
);
},
{
closed = 1;
nodes = (
"577 0 LINE",
"413 330 LINE",
"217 330 LINE",
"349 0 LINE"
);
}
);
width = 597;
},
{
layerId = "21D0BE0D-9149-477D-850E-37608F5C3F7D";
paths = (
{
closed = 1;
nodes = (
"170 1 LINE",
"170 618 LINE",
"255 618 LINE SMOOTH",
"330 618 OFFCURVE",
"374 578 OFFCURVE",
"374 505 CURVE SMOOTH",
"374 430 OFFCURVE",
"330 389 OFFCURVE",
"255 389 CURVE SMOOTH",
"92 389 LINE",
"91 297 LINE",
"254 299 LINE SMOOTH",
"385 300 OFFCURVE",
"469 380 OFFCURVE",
"469 504 CURVE SMOOTH",
"469 628 OFFCURVE",
"385 708 OFFCURVE",
"255 708 CURVE SMOOTH",
"75 708 LINE",
"75 1 LINE"
);
},
{
closed = 1;
nodes = (
"467 1 LINE",
"302 381 LINE",
"213 346 LINE",
"362 1 LINE"
);
}
);
width = 509;
}
);
unicode = 0052;
},
{
color = 1;
glyphname = S;
lastChange = "2016-10-08 05:03:06 +0000";
layers = (
{
layerId = "262880E7-CFE1-4BDA-902E-E24798F3240A";
paths = (
{
closed = 1;
nodes = (
"331 -11 OFFCURVE",
"395 50 OFFCURVE",
"395 149 CURVE SMOOTH",
"395 255 OFFCURVE",
"322 307 OFFCURVE",
"240 361 CURVE SMOOTH",
"159 414 OFFCURVE",
"95 459 OFFCURVE",
"95 552 CURVE SMOOTH",
"95 636 OFFCURVE",
"147 690 OFFCURVE",
"231 690 CURVE SMOOTH",
"315 690 OFFCURVE",
"367 637 OFFCURVE",
"367 550 CURVE SMOOTH",
"367 500 LINE",
"389 500 LINE",
"389 550 LINE SMOOTH",
"389 650 OFFCURVE",
"329 711 OFFCURVE",
"231 711 CURVE SMOOTH",
"133 711 OFFCURVE",
"73 649 OFFCURVE",
"73 553 CURVE SMOOTH",
"73 446 OFFCURVE",
"148 394 OFFCURVE",
"226 342 CURVE SMOOTH",
"303 291 OFFCURVE",
"373 244 OFFCURVE",
"373 148 CURVE SMOOTH",
"373 63 OFFCURVE",
"317 11 OFFCURVE",
"235 11 CURVE SMOOTH",
"147 11 OFFCURVE",
"101 64 OFFCURVE",
"101 150 CURVE SMOOTH",
"101 200 LINE",
"79 200 LINE",
"79 150 LINE SMOOTH",
"79 50 OFFCURVE",
"134 -11 OFFCURVE",
"236 -11 CURVE SMOOTH"
);
}
);
width = 467;
},
{
layerId = "4F25946F-63AC-42D6-8D55-01CF6A99025B";
paths = (
{
closed = 1;
nodes = (
"413 -10 OFFCURVE",
"503 71 OFFCURVE",
"503 194 CURVE SMOOTH",
"503 304 OFFCURVE",
"431 376 OFFCURVE",
"325 419 CURVE SMOOTH",
"271 441 OFFCURVE",
"223 449 OFFCURVE",
"223 484 CURVE SMOOTH",
"223 504 OFFCURVE",
"238 522 OFFCURVE",
"267 522 CURVE SMOOTH",
"294 522 OFFCURVE",
"311 505 OFFCURVE",
"311 477 CURVE SMOOTH",
"311 468 LINE",
"503 476 LINE",
"503 487 LINE SMOOTH",
"503 621 OFFCURVE",
"404 710 OFFCURVE",
"261 710 CURVE SMOOTH",
"122 710 OFFCURVE",
"31 627 OFFCURVE",
"31 506 CURVE SMOOTH",
"31 399 OFFCURVE",
"102 322 OFFCURVE",
"209 281 CURVE SMOOTH",
"253 264 OFFCURVE",
"311 251 OFFCURVE",
"311 217 CURVE SMOOTH",
"311 199 OFFCURVE",
"296 178 OFFCURVE",
"267 178 CURVE SMOOTH",
"240 178 OFFCURVE",
"223 195 OFFCURVE",
"223 223 CURVE SMOOTH",
"223 232 LINE",
"21 224 LINE",
"21 213 LINE SMOOTH",
"21 79 OFFCURVE",
"120 -10 OFFCURVE",
"270 -10 CURVE SMOOTH"
);
}
);
width = 527;
},
{
layerId = "21D0BE0D-9149-477D-850E-37608F5C3F7D";
paths = (
{
closed = 1;
nodes = (
"356 -9 OFFCURVE",
"434 62 OFFCURVE",
"434 169 CURVE SMOOTH",
"434 283 OFFCURVE",
"345 341 OFFCURVE",
"265 390 CURVE SMOOTH",
"174 446 OFFCURVE",
"142 476 OFFCURVE",
"142 532 CURVE SMOOTH",
"142 588 OFFCURVE",
"176 619 OFFCURVE",
"236 619 CURVE SMOOTH",
"297 619 OFFCURVE",
"331 588 OFFCURVE",
"331 530 CURVE SMOOTH",
"331 467 LINE",
"427 467 LINE",
"427 530 LINE SMOOTH",
"427 639 OFFCURVE",
"352 709 OFFCURVE",
"236 709 CURVE SMOOTH",
"120 709 OFFCURVE",
"45 639 OFFCURVE",
"45 532 CURVE SMOOTH",
"45 418 OFFCURVE",
"134 359 OFFCURVE",
"210 313 CURVE SMOOTH",
"303 257 OFFCURVE",
"337 225 OFFCURVE",
"337 168 CURVE SMOOTH",
"337 114 OFFCURVE",
"301 82 OFFCURVE",
"240 82 CURVE SMOOTH",
"178 82 OFFCURVE",
"148 111 OFFCURVE",
"148 170 CURVE SMOOTH",
"148 234 LINE",
"51 234 LINE",
"51 170 LINE SMOOTH",
"51 59 OFFCURVE",
"122 -9 OFFCURVE",
"241 -9 CURVE SMOOTH"
);
}
);
width = 478;
}
);
unicode = 0053;
},
{
color = 1;
glyphname = T;
lastChange = "2016-10-08 05:03:06 +0000";
layers = (
{
layerId = "262880E7-CFE1-4BDA-902E-E24798F3240A";
paths = (
{
closed = 1;
nodes = (
"221 0 LINE",
"221 689 LINE",
"199 689 LINE",
"199 0 LINE"
);
},
{
closed = 1;
nodes = (
"375 679 LINE",
"375 700 LINE",
"53 700 LINE",
"53 679 LINE"
);
}
);
width = 428;
},
{
layerId = "4F25946F-63AC-42D6-8D55-01CF6A99025B";
paths = (
{
closed = 1;
nodes = (
"381 0 LINE",
"381 606 LINE",
"169 606 LINE",
"169 0 LINE"
);
},
{
closed = 1;
nodes = (
"529 500 LINE",
"529 700 LINE",
"21 700 LINE",
"21 500 LINE"
);
}
);
width = 550;
},
{
layerId = "21D0BE0D-9149-477D-850E-37608F5C3F7D";
paths = (
{
closed = 1;
nodes = (
"262 0 LINE",
"262 690 LINE",
"166 690 LINE",
"166 0 LINE"
);
},
{
closed = 1;
nodes = (
"410 609 LINE",
"410 700 LINE",
"26 700 LINE",
"26 609 LINE"
);
}
);
width = 436;
}
);
unicode = 0054;
},
{
color = 1;
glyphname = U;
lastChange = "2016-10-08 05:03:06 +0000";
layers = (
{
layerId = "262880E7-CFE1-4BDA-902E-E24798F3240A";
paths = (
{
closed = 1;
nodes = (
"356 -11 OFFCURVE",
"418 50 OFFCURVE",
"418 150 CURVE SMOOTH",
"418 700 LINE",
"396 700 LINE",
"396 150 LINE SMOOTH",
"396 64 OFFCURVE",
"344 11 OFFCURVE",
"257 11 CURVE SMOOTH",
"170 11 OFFCURVE",
"118 64 OFFCURVE",
"118 150 CURVE SMOOTH",
"118 700 LINE",
"96 700 LINE",
"96 150 LINE SMOOTH",
"96 50 OFFCURVE",
"158 -11 OFFCURVE",
"257 -11 CURVE SMOOTH"
);
}
);
width = 514;
},
{
layerId = "4F25946F-63AC-42D6-8D55-01CF6A99025B";
paths = (
{
closed = 1;
nodes = (
"447 -10 OFFCURVE",
"552 89 OFFCURVE",
"552 234 CURVE SMOOTH",
"552 700 LINE",
"340 700 LINE",
"340 234 LINE SMOOTH",
"340 200 OFFCURVE",
"322 178 OFFCURVE",
"296 178 CURVE SMOOTH",
"270 178 OFFCURVE",
"252 200 OFFCURVE",
"252 234 CURVE SMOOTH",
"252 700 LINE",
"40 700 LINE",
"40 234 LINE SMOOTH",
"40 89 OFFCURVE",
"145 -10 OFFCURVE",
"296 -10 CURVE SMOOTH"
);
}
);
width = 592;
},
{
layerId = "21D0BE0D-9149-477D-850E-37608F5C3F7D";
paths = (
{
closed = 1;
nodes = (
"381 -10 OFFCURVE",
"458 61 OFFCURVE",
"458 170 CURVE SMOOTH",
"458 699 LINE",
"361 699 LINE",
"361 170 LINE SMOOTH",
"361 112 OFFCURVE",
"327 82 OFFCURVE",
"264 82 CURVE SMOOTH",
"201 82 OFFCURVE",
"166 112 OFFCURVE",
"166 170 CURVE SMOOTH",
"166 699 LINE",
"69 699 LINE",
"69 170 LINE SMOOTH",
"69 61 OFFCURVE",
"146 -10 OFFCURVE",
"264 -10 CURVE SMOOTH"
);
}
);
width = 527;
}
);
unicode = 0055;
},
{
color = 1;
glyphname = V;
lastChange = "2016-10-08 05:03:06 +0000";
layers = (
{
layerId = "262880E7-CFE1-4BDA-902E-E24798F3240A";
paths = (
{
closed = 1;
nodes = (
"245 0 LINE",
"410 700 LINE",
"388 700 LINE",
"234 40 LINE",
"80 700 LINE",
"58 700 LINE",
"223 0 LINE"
);
}
);
width = 468;
},
{
layerId = "4F25946F-63AC-42D6-8D55-01CF6A99025B";
paths = (
{
closed = 1;
nodes = (
"432 1 LINE",
"632 700 LINE",
"414 700 LINE",
"323 323 LINE",
"232 700 LINE",
"14 700 LINE",
"214 1 LINE"
);
}
);
width = 646;
},
{
layerId = "21D0BE0D-9149-477D-850E-37608F5C3F7D";
paths = (
{
closed = 1;
nodes = (
"282 0 LINE",
"455 700 LINE",
"356 700 LINE",
"241 200 LINE",
"126 700 LINE",
"27 700 LINE",
"200 0 LINE"
);
}
);
width = 482;
}
);
unicode = 0056;
},
{
color = 1;
glyphname = W;
lastChange = "2016-10-08 05:03:06 +0000";
layers = (
{
layerId = "262880E7-CFE1-4BDA-902E-E24798F3240A";
paths = (
{
closed = 1;
nodes = (
"207 0 LINE",
"321 648 LINE",
"435 0 LINE",
"457 0 LINE",
"582 700 LINE",
"560 700 LINE",
"446 52 LINE",
"332 700 LINE",
"310 700 LINE",
"196 52 LINE",
"82 700 LINE",
"60 700 LINE",
"185 0 LINE"
);
}
);
width = 642;
},
{
layerId = "4F25946F-63AC-42D6-8D55-01CF6A99025B";
paths = (
{
closed = 1;
nodes = (
"387 1 LINE",
"423 287 LINE",
"459 1 LINE",
"677 1 LINE",
"831 700 LINE",
"615 700 LINE",
"573 383 LINE",
"531 699 LINE",
"315 699 LINE",
"273 383 LINE",
"231 700 LINE",
"15 700 LINE",
"169 1 LINE"
);
}
);
width = 846;
},
{
layerId = "21D0BE0D-9149-477D-850E-37608F5C3F7D";
paths = (
{
closed = 1;
nodes = (
"250 0 LINE",
"328 414 LINE",
"407 0 LINE",
"492 0 LINE",
"627 700 LINE",
"529 700 LINE",
"450 286 LINE",
"371 700 LINE",
"285 700 LINE",
"207 286 LINE",
"128 700 LINE",
"30 700 LINE",
"165 0 LINE"
);
}
);
width = 657;
}
);
unicode = 0057;
},
{
color = 1;
glyphname = X;
lastChange = "2016-10-08 05:03:05 +0000";
layers = (
{
layerId = "262880E7-CFE1-4BDA-902E-E24798F3240A";
paths = (
{
closed = 1;
nodes = (
"368 700 LINE",
"391 700 LINE",
"82 0 LINE",
"59 0 LINE"
);
},
{
closed = 1;
nodes = (
"59 700 LINE",
"82 700 LINE",
"391 0 LINE",
"368 0 LINE"
);
}
);
width = 450;
},
{
layerId = "4F25946F-63AC-42D6-8D55-01CF6A99025B";
paths = (
{
closed = 1;
nodes = (
"15 700 LINE",
"253 700 LINE",
"593 0 LINE",
"355 0 LINE"
);
},
{
closed = 1;
nodes = (
"355 700 LINE",
"593 700 LINE",
"253 0 LINE",
"15 0 LINE"
);
}
);
width = 608;
},
{
layerId = "21D0BE0D-9149-477D-850E-37608F5C3F7D";
paths = (
{
closed = 1;
nodes = (
"29 700 LINE",
"133 700 LINE",
"432 0 LINE",
"328 0 LINE"
);
},
{
closed = 1;
nodes = (
"328 700 LINE",
"432 700 LINE",
"133 0 LINE",
"29 0 LINE"
);
}
);
width = 461;
}
);
unicode = 0058;
},
{
color = 1;
glyphname = Y;
lastChange = "2016-10-08 05:03:06 +0000";
layers = (
{
layerId = "262880E7-CFE1-4BDA-902E-E24798F3240A";
paths = (
{
closed = 1;
nodes = (
"388 700 LINE",
"363 700 LINE",
"221 379 LINE",
"80 700 LINE",
"54 700 LINE",
"221 328 LINE"
);
},
{
closed = 1;
nodes = (
"232 0 LINE",
"232 350 LINE",
"210 350 LINE",
"210 0 LINE"
);
}
);
width = 442;
},
{
layerId = "4F25946F-63AC-42D6-8D55-01CF6A99025B";
paths = (
{
closed = 1;
nodes = (
"575 700 LINE",
"359 700 LINE",
"295 549 LINE",
"238 700 LINE",
"12 700 LINE",
"294 92 LINE"
);
},
{
closed = 1;
nodes = (
"402 0 LINE",
"402 350 LINE",
"186 350 LINE",
"186 0 LINE"
);
}
);
width = 587;
},
{
layerId = "21D0BE0D-9149-477D-850E-37608F5C3F7D";
paths = (
{
closed = 1;
nodes = (
"461 700 LINE",
"355 700 LINE",
"242 466 LINE",
"129 700 LINE",
"22 700 LINE",
"242 241 LINE"
);
},
{
closed = 1;
nodes = (
"291 0 LINE",
"291 385 LINE",
"193 385 LINE",
"193 0 LINE"
);
}
);
width = 483;
}
);
unicode = 0059;
},
{
color = 1;
glyphname = Z;
lastChange = "2016-10-08 05:03:06 +0000";
layers = (
{
layerId = "262880E7-CFE1-4BDA-902E-E24798F3240A";
paths = (
{
closed = 1;
nodes = (
"372 0 LINE",
"372 22 LINE",
"88 22 LINE",
"388 700 LINE",
"72 700 LINE",
"72 679 LINE",
"356 679 LINE",
"56 0 LINE"
);
}
);
width = 444;
},
{
layerId = "4F25946F-63AC-42D6-8D55-01CF6A99025B";
paths = (
{
closed = 1;
nodes = (
"546 0 LINE",
"546 198 LINE",
"336 198 LINE",
"566 700 LINE",
"38 700 LINE",
"38 502 LINE",
"258 502 LINE",
"18 0 LINE"
);
}
);
width = 584;
},
{
layerId = "21D0BE0D-9149-477D-850E-37608F5C3F7D";
paths = (
{
closed = 1;
nodes = (
"414 0 LINE",
"414 92 LINE",
"175 92 LINE",
"430 700 LINE",
"47 700 LINE",
"47 609 LINE",
"285 609 LINE",
"29 0 LINE"
);
}
);
width = 459;
}
);
unicode = 005A;
},
{
color = 1;
glyphname = a;
lastChange = "2016-10-08 05:03:06 +0000";
layers = (
{
layerId = "262880E7-CFE1-4BDA-902E-E24798F3240A";
paths = (
{
closed = 1;
nodes = (
"324 -11 OFFCURVE",
"387 52 OFFCURVE",
"387 152 CURVE SMOOTH",
"387 348 LINE SMOOTH",
"387 448 OFFCURVE",
"324 511 OFFCURVE",
"228 511 CURVE SMOOTH",
"131 511 OFFCURVE",
"68 450 OFFCURVE",
"68 350 CURVE SMOOTH",
"68 150 LINE SMOOTH",
"68 50 OFFCURVE",
"131 -11 OFFCURVE",
"228 -11 CURVE SMOOTH"
);
},
{
closed = 1;
nodes = (
"142 11 OFFCURVE",
"90 64 OFFCURVE",
"90 150 CURVE SMOOTH",
"90 350 LINE SMOOTH",
"90 436 OFFCURVE",
"144 490 OFFCURVE",
"229 490 CURVE SMOOTH",
"314 490 OFFCURVE",
"368 436 OFFCURVE",
"368 350 CURVE SMOOTH",
"368 150 LINE SMOOTH",
"368 64 OFFCURVE",
"316 11 OFFCURVE",
"229 11 CURVE SMOOTH"
);
},
{
closed = 1;
nodes = (
"390 0 LINE",
"390 500 LINE",
"368 500 LINE",
"368 0 LINE"
);
}
);
width = 470;
},
{
layerId = "4F25946F-63AC-42D6-8D55-01CF6A99025B";
paths = (
{
closed = 1;
nodes = (
"309 0 OFFCURVE",
"489 138 OFFCURVE",
"489 178 CURVE SMOOTH",
"489 212 LINE SMOOTH",
"489 253 OFFCURVE",
"381 500 OFFCURVE",
"187 500 CURVE",
"84 500 OFFCURVE",
"27 449 OFFCURVE",
"27 350 CURVE SMOOTH",
"27 160 LINE SMOOTH",
"27 69 OFFCURVE",
"67 0 OFFCURVE",
"166 0 CURVE SMOOTH"
);
},
{
closed = 1;
nodes = (
"244 171 OFFCURVE",
"235 181 OFFCURVE",
"235 198 CURVE SMOOTH",
"235 312 LINE SMOOTH",
"235 329 OFFCURVE",
"244 339 OFFCURVE",
"260 339 CURVE SMOOTH",
"276 339 OFFCURVE",
"285 329 OFFCURVE",
"285 312 CURVE SMOOTH",
"285 198 LINE SMOOTH",
"285 181 OFFCURVE",
"276 171 OFFCURVE",
"260 171 CURVE SMOOTH"
);
},
{
closed = 1;
nodes = (
"493 0 LINE",
"493 500 LINE",
"285 500 LINE",
"285 0 LINE"
);
}
);
width = 532;
},
{
layerId = "21D0BE0D-9149-477D-850E-37608F5C3F7D";
paths = (
{
closed = 1;
nodes = (
"317 -6 OFFCURVE",
"384 72 OFFCURVE",
"384 174 CURVE SMOOTH",
"384 326 LINE SMOOTH",
"384 429 OFFCURVE",
"307 506 OFFCURVE",
"204 506 CURVE SMOOTH",
"117 506 OFFCURVE",
"44 453 OFFCURVE",
"44 337 CURVE SMOOTH",
"44 163 LINE SMOOTH",
"44 49 OFFCURVE",
"125 -6 OFFCURVE",
"214 -6 CURVE SMOOTH"
);
},
{
closed = 1;
nodes = (
"172 78 OFFCURVE",
"138 111 OFFCURVE",
"138 163 CURVE SMOOTH",
"138 337 LINE SMOOTH",
"138 390 OFFCURVE",
"174 423 OFFCURVE",
"232 423 CURVE SMOOTH",
"290 423 OFFCURVE",
"326 390 OFFCURVE",
"326 337 CURVE SMOOTH",
"326 163 LINE SMOOTH",
"326 111 OFFCURVE",
"290 78 OFFCURVE",
"232 78 CURVE SMOOTH"
);
},
{
closed = 1;
nodes = (
"419 0 LINE",
"419 500 LINE",
"326 500 LINE",
"326 0 LINE"
);
}
);
width = 479;
}
);
unicode = 0061;
},
{
color = 1;
glyphname = b;
lastChange = "2016-10-08 05:03:06 +0000";
layers = (
{
layerId = "262880E7-CFE1-4BDA-902E-E24798F3240A";
paths = (
{
closed = 1;
nodes = (
"342 -11 OFFCURVE",
"402 50 OFFCURVE",
"402 150 CURVE SMOOTH",
"402 350 LINE SMOOTH",
"402 450 OFFCURVE",
"342 511 OFFCURVE",
"244 511 CURVE SMOOTH",
"146 511 OFFCURVE",
"82 448 OFFCURVE",
"82 348 CURVE SMOOTH",
"82 152 LINE SMOOTH",
"82 52 OFFCURVE",
"146 -11 OFFCURVE",
"244 -11 CURVE SMOOTH"
);
},
{
closed = 1;
nodes = (
"102 0 LINE",
"102 700 LINE",
"80 700 LINE",
"80 0 LINE"
);
},
{
closed = 1;
nodes = (
"155 11 OFFCURVE",
"102 64 OFFCURVE",
"102 150 CURVE SMOOTH",
"102 350 LINE SMOOTH",
"102 437 OFFCURVE",
"155 490 OFFCURVE",
"241 490 CURVE SMOOTH",
"327 490 OFFCURVE",
"380 437 OFFCURVE",
"380 350 CURVE SMOOTH",
"380 150 LINE SMOOTH",
"380 64 OFFCURVE",
"327 11 OFFCURVE",
"241 11 CURVE SMOOTH"
);
}
);
width = 471;
},
{
layerId = "4F25946F-63AC-42D6-8D55-01CF6A99025B";
paths = (
{
closed = 1;
nodes = (
"465 0 OFFCURVE",
"505 69 OFFCURVE",
"505 160 CURVE SMOOTH",
"505 350 LINE SMOOTH",
"505 441 OFFCURVE",
"457 510 OFFCURVE",
"366 510 CURVE",
"235 510 OFFCURVE",
"93 358 OFFCURVE",
"93 247 CURVE SMOOTH",
"93 183 LINE SMOOTH",
"93 142 OFFCURVE",
"223 0 OFFCURVE",
"366 0 CURVE SMOOTH"
);
},
{
closed = 1;
nodes = (
"247 0 LINE",
"247 700 LINE",
"39 700 LINE",
"39 0 LINE"
);
},
{
closed = 1;
nodes = (
"256 171 OFFCURVE",
"247 181 OFFCURVE",
"247 198 CURVE SMOOTH",
"247 312 LINE SMOOTH",
"247 329 OFFCURVE",
"256 339 OFFCURVE",
"272 339 CURVE SMOOTH",
"288 339 OFFCURVE",
"297 329 OFFCURVE",
"297 312 CURVE SMOOTH",
"297 198 LINE SMOOTH",
"297 181 OFFCURVE",
"288 171 OFFCURVE",
"272 171 CURVE SMOOTH"
);
}
);
width = 532;
},
{
layerId = "21D0BE0D-9149-477D-850E-37608F5C3F7D";
paths = (
{
closed = 1;
nodes = (
"371 -6 OFFCURVE",
"435 52 OFFCURVE",
"435 157 CURVE SMOOTH",
"435 343 LINE SMOOTH",
"435 448 OFFCURVE",
"373 506 OFFCURVE",
"276 506 CURVE SMOOTH",
"171 506 OFFCURVE",
"94 429 OFFCURVE",
"94 326 CURVE SMOOTH",
"94 174 LINE SMOOTH",
"94 73 OFFCURVE",
"157 -6 OFFCURVE",
"269 -6 CURVE SMOOTH"
);
},
{
closed = 1;
nodes = (
"153 0 LINE",
"153 700 LINE",
"60 700 LINE",
"60 0 LINE"
);
},
{
closed = 1;
nodes = (
"188 78 OFFCURVE",
"153 111 OFFCURVE",
"153 163 CURVE SMOOTH",
"153 337 LINE SMOOTH",
"153 390 OFFCURVE",
"188 423 OFFCURVE",
"248 423 CURVE SMOOTH",
"306 423 OFFCURVE",
"341 390 OFFCURVE",
"341 337 CURVE SMOOTH",
"341 163 LINE SMOOTH",
"341 111 OFFCURVE",
"306 78 OFFCURVE",
"248 78 CURVE SMOOTH"
);
}
);
width = 480;
}
);
unicode = 0062;
},
{
color = 1;
glyphname = c;
lastChange = "2016-10-08 05:03:05 +0000";
layers = (
{
layerId = "262880E7-CFE1-4BDA-902E-E24798F3240A";
paths = (
{
closed = 1;
nodes = (
"328 -11 OFFCURVE",
"390 50 OFFCURVE",
"390 150 CURVE SMOOTH",
"390 153 LINE",
"368 153 LINE",
"368 150 LINE SMOOTH",
"368 64 OFFCURVE",
"316 11 OFFCURVE",
"229 11 CURVE SMOOTH",
"142 11 OFFCURVE",
"90 64 OFFCURVE",
"90 150 CURVE SMOOTH",
"90 350 LINE SMOOTH",
"90 437 OFFCURVE",
"144 490 OFFCURVE",
"229 490 CURVE SMOOTH",
"314 490 OFFCURVE",
"368 437 OFFCURVE",
"368 350 CURVE SMOOTH",
"368 348 LINE",
"390 348 LINE",
"390 350 LINE SMOOTH",
"390 450 OFFCURVE",
"328 511 OFFCURVE",
"229 511 CURVE SMOOTH",
"130 511 OFFCURVE",
"68 450 OFFCURVE",
"68 350 CURVE SMOOTH",
"68 150 LINE SMOOTH",
"68 50 OFFCURVE",
"130 -11 OFFCURVE",
"229 -11 CURVE SMOOTH"
);
}
);
width = 441;
},
{
layerId = "4F25946F-63AC-42D6-8D55-01CF6A99025B";
paths = (
{
closed = 1;
nodes = (
"408 -8 OFFCURVE",
"482 66 OFFCURVE",
"493 231 CURVE",
"493 233 LINE",
"281 233 LINE",
"281 188 LINE SMOOTH",
"281 171 OFFCURVE",
"272 161 OFFCURVE",
"256 161 CURVE SMOOTH",
"240 161 OFFCURVE",
"231 171 OFFCURVE",
"231 188 CURVE",
"231 322 LINE",
"231 339 OFFCURVE",
"240 349 OFFCURVE",
"256 349 CURVE SMOOTH",
"272 349 OFFCURVE",
"281 339 OFFCURVE",
"281 322 CURVE",
"281 277 LINE",
"493 277 LINE",
"493 279 LINE",
"491 437 OFFCURVE",
"417 508 OFFCURVE",
"255 508 CURVE SMOOTH",
"92 508 OFFCURVE",
"19 430 OFFCURVE",
"19 256 CURVE SMOOTH",
"19 247 LINE SMOOTH",
"19 71 OFFCURVE",
"92 -8 OFFCURVE",
"254 -8 CURVE SMOOTH"
);
}
);
width = 510;
},
{
layerId = "21D0BE0D-9149-477D-850E-37608F5C3F7D";
paths = (
{
closed = 1;
nodes = (
"343 -10 OFFCURVE",
"417 52 OFFCURVE",
"417 146 CURVE SMOOTH",
"417 160 LINE",
"324 160 LINE",
"324 146 LINE SMOOTH",
"324 104 OFFCURVE",
"287 78 OFFCURVE",
"230 78 CURVE SMOOTH",
"171 78 OFFCURVE",
"136 111 OFFCURVE",
"136 163 CURVE SMOOTH",
"136 337 LINE SMOOTH",
"136 390 OFFCURVE",
"172 423 OFFCURVE",
"230 423 CURVE SMOOTH",
"287 423 OFFCURVE",
"324 396 OFFCURVE",
"324 354 CURVE SMOOTH",
"324 340 LINE",
"417 340 LINE",
"417 354 LINE SMOOTH",
"417 448 OFFCURVE",
"343 510 OFFCURVE",
"230 510 CURVE SMOOTH",
"117 510 OFFCURVE",
"42 442 OFFCURVE",
"42 337 CURVE SMOOTH",
"42 163 LINE SMOOTH",
"42 58 OFFCURVE",
"117 -10 OFFCURVE",
"230 -10 CURVE SMOOTH"
);
}
);
width = 445;
}
);
unicode = 0063;
},
{
color = 1;
glyphname = e;
lastChange = "2016-10-08 05:03:06 +0000";
layers = (
{
associatedMasterId = "262880E7-CFE1-4BDA-902E-E24798F3240A";
layerId = "9A50E751-D878-44E4-8C48-20211EFA92C6";
name = "Brace {120,100}";
paths = (
{
closed = 1;
nodes = (
"368 -9 OFFCURVE",
"437 53 OFFCURVE",
"442 176 CURVE",
"442 178 LINE",
"317 178 LINE",
"317 176 LINE SMOOTH",
"317 131 OFFCURVE",
"289 103 OFFCURVE",
"240 103 CURVE SMOOTH",
"192 103 OFFCURVE",
"163 133 OFFCURVE",
"163 181 CURVE SMOOTH",
"163 324 LINE SMOOTH",
"163 373 OFFCURVE",
"193 403 OFFCURVE",
"240 403 CURVE SMOOTH",
"288 403 OFFCURVE",
"317 373 OFFCURVE",
"317 324 CURVE SMOOTH",
"317 299 LINE",
"155 299 LINE",
"155 211 LINE",
"442 211 LINE",
"442 302 LINE",
"441 440 OFFCURVE",
"373 509 OFFCURVE",
"240 509 CURVE SMOOTH",
"106 509 OFFCURVE",
"38 439 OFFCURVE",
"38 299 CURVE SMOOTH",
"38 203 LINE SMOOTH",
"38 61 OFFCURVE",
"106 -9 OFFCURVE",
"239 -9 CURVE SMOOTH"
);
}
);
width = 477;
visible = 1;
},
{
associatedMasterId = "262880E7-CFE1-4BDA-902E-E24798F3240A";
layerId = "3CEF2D4B-7961-44AA-B0D5-B2E040DB4A41";
name = "Brace {120,100}";
paths = (
{
closed = 1;
nodes = (
"368 -9 OFFCURVE",
"437 53 OFFCURVE",
"442 176 CURVE",
"442 178 LINE",
"317 178 LINE",
"317 176 LINE SMOOTH",
"317 131 OFFCURVE",
"289 103 OFFCURVE",
"240 103 CURVE SMOOTH",
"192 103 OFFCURVE",
"163 133 OFFCURVE",
"163 181 CURVE SMOOTH",
"163 324 LINE SMOOTH",
"163 373 OFFCURVE",
"193 403 OFFCURVE",
"240 403 CURVE SMOOTH",
"288 403 OFFCURVE",
"317 373 OFFCURVE",
"317 324 CURVE SMOOTH",
"317 299 LINE",
"155 299 LINE",
"155 211 LINE",
"442 211 LINE",
"442 302 LINE",
"441 440 OFFCURVE",
"373 509 OFFCURVE",
"240 509 CURVE SMOOTH",
"106 509 OFFCURVE",
"38 439 OFFCURVE",
"38 299 CURVE SMOOTH",
"38 203 LINE SMOOTH",
"38 61 OFFCURVE",
"106 -9 OFFCURVE",
"239 -9 CURVE SMOOTH"
);
}
);
width = 477;
},
{
layerId = "262880E7-CFE1-4BDA-902E-E24798F3240A";
paths = (
{
closed = 1;
nodes = (
"328 -11 OFFCURVE",
"390 50 OFFCURVE",
"390 150 CURVE SMOOTH",
"390 154 LINE",
"368 154 LINE",
"368 150 LINE SMOOTH",
"368 64 OFFCURVE",
"316 11 OFFCURVE",
"229 11 CURVE SMOOTH",
"142 11 OFFCURVE",
"90 64 OFFCURVE",
"90 150 CURVE SMOOTH",
"90 350 LINE SMOOTH",
"90 437 OFFCURVE",
"144 490 OFFCURVE",
"229 490 CURVE SMOOTH",
"314 490 OFFCURVE",
"368 437 OFFCURVE",
"368 350 CURVE SMOOTH",
"368 261 LINE",
"85 261 LINE",
"85 240 LINE",
"390 240 LINE",
"390 350 LINE SMOOTH",
"390 450 OFFCURVE",
"328 511 OFFCURVE",
"229 511 CURVE SMOOTH",
"130 511 OFFCURVE",
"68 450 OFFCURVE",
"68 350 CURVE SMOOTH",
"68 150 LINE SMOOTH",
"68 50 OFFCURVE",
"130 -11 OFFCURVE",
"229 -11 CURVE SMOOTH"
);
}
);
width = 453;
},
{
associatedMasterId = "262880E7-CFE1-4BDA-902E-E24798F3240A";
layerId = "9D8DF20E-CBA3-43EE-9978-948F1F9FD2C5";
name = "Brace {120,100}";
paths = (
{
closed = 1;
nodes = (
"368 -9 OFFCURVE",
"437 53 OFFCURVE",
"442 176 CURVE",
"442 178 LINE",
"317 178 LINE",
"317 176 LINE SMOOTH",
"317 131 OFFCURVE",
"289 103 OFFCURVE",
"240 103 CURVE SMOOTH",
"192 103 OFFCURVE",
"163 133 OFFCURVE",
"163 181 CURVE SMOOTH",
"163 324 LINE SMOOTH",
"163 373 OFFCURVE",
"193 403 OFFCURVE",
"240 403 CURVE SMOOTH",
"288 403 OFFCURVE",
"317 373 OFFCURVE",
"317 324 CURVE SMOOTH",
"317 299 LINE",
"155 299 LINE",
"155 211 LINE",
"442 211 LINE",
"442 302 LINE",
"441 440 OFFCURVE",
"373 509 OFFCURVE",
"240 509 CURVE SMOOTH",
"106 509 OFFCURVE",
"38 439 OFFCURVE",
"38 299 CURVE SMOOTH",
"38 203 LINE SMOOTH",
"38 61 OFFCURVE",
"106 -9 OFFCURVE",
"239 -9 CURVE SMOOTH"
);
}
);
width = 477;
},
{
layerId = "4F25946F-63AC-42D6-8D55-01CF6A99025B";
paths = (
{
closed = 1;
nodes = (
"409 -8 OFFCURVE",
"483 55 OFFCURVE",
"493 198 CURVE",
"493 198 LINE",
"281 198 LINE",
"281 188 LINE SMOOTH",
"281 171 OFFCURVE",
"272 161 OFFCURVE",
"256 161 CURVE SMOOTH",
"240 161 OFFCURVE",
"231 171 OFFCURVE",
"231 188 CURVE SMOOTH",
"231 322 LINE SMOOTH",
"231 339 OFFCURVE",
"240 349 OFFCURVE",
"256 349 CURVE SMOOTH",
"272 349 OFFCURVE",
"281 339 OFFCURVE",
"281 322 CURVE SMOOTH",
"281 279 LINE",
"220 279 LINE",
"220 231 LINE",
"493 231 LINE",
"493 262 LINE",
"491 432 OFFCURVE",
"417 508 OFFCURVE",
"255 508 CURVE SMOOTH",
"92 508 OFFCURVE",
"19 430 OFFCURVE",
"19 256 CURVE SMOOTH",
"19 247 LINE SMOOTH",
"19 71 OFFCURVE",
"92 -8 OFFCURVE",
"254 -8 CURVE SMOOTH"
);
}
);
width = 512;
},
{
layerId = "21D0BE0D-9149-477D-850E-37608F5C3F7D";
paths = (
{
closed = 1;
nodes = (
"343 -10 OFFCURVE",
"417 59 OFFCURVE",
"417 163 CURVE SMOOTH",
"417 164 LINE",
"324 164 LINE",
"324 163 LINE SMOOTH",
"324 107 OFFCURVE",
"292 78 OFFCURVE",
"230 78 CURVE SMOOTH",
"168 78 OFFCURVE",
"136 107 OFFCURVE",
"136 163 CURVE SMOOTH",
"136 337 LINE SMOOTH",
"136 393 OFFCURVE",
"169 423 OFFCURVE",
"230 423 CURVE SMOOTH",
"291 423 OFFCURVE",
"324 393 OFFCURVE",
"324 337 CURVE SMOOTH",
"324 295 LINE",
"107 295 LINE",
"107 217 LINE",
"417 217 LINE",
"417 337 LINE SMOOTH",
"417 441 OFFCURVE",
"343 510 OFFCURVE",
"230 510 CURVE SMOOTH",
"117 510 OFFCURVE",
"42 441 OFFCURVE",
"42 337 CURVE SMOOTH",
"42 163 LINE SMOOTH",
"42 59 OFFCURVE",
"117 -10 OFFCURVE",
"230 -10 CURVE SMOOTH"
);
}
);
width = 456;
}
);
unicode = 0065;
},
{
color = 1;
glyphname = f;
lastChange = "2016-10-08 05:03:05 +0000";
layers = (
{
associatedMasterId = "262880E7-CFE1-4BDA-902E-E24798F3240A";
layerId = "2A54E209-1ED7-4A8E-ADE2-3C776EC03571";
name = "Brace {120,100}";
paths = (
{
closed = 1;
nodes = (
"200 4 LINE",
"200 538 LINE",
"200 579 OFFCURVE",
"220 593 OFFCURVE",
"282 593 CURVE",
"282 701 LINE",
"160 705 OFFCURVE",
"75 681 OFFCURVE",
"75 549 CURVE",
"75 4 LINE"
);
},
{
closed = 1;
nodes = (
"278 396 LINE",
"278 500 LINE",
"18 500 LINE",
"18 396 LINE"
);
}
);
width = 291;
},
{
associatedMasterId = "262880E7-CFE1-4BDA-902E-E24798F3240A";
layerId = "7166BF04-FB6F-438D-9CD7-6ADA982C4DAC";
name = "Brace {120,100}";
paths = (
{
closed = 1;
nodes = (
"200 4 LINE",
"200 538 LINE",
"200 579 OFFCURVE",
"220 593 OFFCURVE",
"282 593 CURVE",
"282 701 LINE",
"160 705 OFFCURVE",
"75 681 OFFCURVE",
"75 549 CURVE",
"75 4 LINE"
);
},
{
closed = 1;
nodes = (
"278 396 LINE",
"278 500 LINE",
"18 500 LINE",
"18 396 LINE"
);
}
);
width = 291;
},
{
layerId = "262880E7-CFE1-4BDA-902E-E24798F3240A";
paths = (
{
closed = 1;
nodes = (
"125 0 LINE",
"125 550 LINE SMOOTH",
"125 637 OFFCURVE",
"178 690 OFFCURVE",
"264 690 CURVE",
"264 711 LINE",
"164 711 OFFCURVE",
"103 650 OFFCURVE",
"103 550 CURVE SMOOTH",
"103 0 LINE"
);
},
{
closed = 1;
nodes = (
"234 479 LINE",
"234 500 LINE",
"34 500 LINE",
"34 479 LINE"
);
}
);
width = 268;
},
{
associatedMasterId = "262880E7-CFE1-4BDA-902E-E24798F3240A";
layerId = "1035E12E-5963-44BA-8DB8-699EB95B285B";
name = "Brace {120,100}";
paths = (
{
closed = 1;
nodes = (
"200 4 LINE",
"200 538 LINE",
"200 579 OFFCURVE",
"220 593 OFFCURVE",
"282 593 CURVE",
"282 701 LINE",
"160 705 OFFCURVE",
"75 681 OFFCURVE",
"75 549 CURVE",
"75 4 LINE"
);
},
{
closed = 1;
nodes = (
"278 396 LINE",
"278 500 LINE",
"18 500 LINE",
"18 396 LINE"
);
}
);
width = 291;
},
{
layerId = "4F25946F-63AC-42D6-8D55-01CF6A99025B";
paths = (
{
closed = 1;
nodes = (
"273 8 LINE",
"273 527 LINE",
"273 547 OFFCURVE",
"285 551 OFFCURVE",
"307 551 CURVE",
"307 693 LINE",
"167 700 OFFCURVE",
"61 690 OFFCURVE",
"61 549 CURVE",
"61 8 LINE"
);
},
{
closed = 1;
nodes = (
"325 326 LINE",
"325 500 LINE",
"15 500 LINE",
"15 326 LINE"
);
}
);
width = 340;
},
{
layerId = "21D0BE0D-9149-477D-850E-37608F5C3F7D";
paths = (
{
closed = 1;
nodes = (
"180 0 LINE",
"180 524 LINE SMOOTH",
"180 574 OFFCURVE",
"221 602 OFFCURVE",
"279 602 CURVE",
"282 700 LINE",
"135 700 OFFCURVE",
"86 603 OFFCURVE",
"86 524 CURVE SMOOTH",
"86 0 LINE"
);
},
{
closed = 1;
nodes = (
"287 399 LINE",
"287 500 LINE",
"16 500 LINE",
"16 399 LINE"
);
}
);
width = 303;
}
);
unicode = 0066;
},
{
color = 1;
glyphname = g;
lastChange = "2016-10-08 05:03:06 +0000";
layers = (
{
layerId = "262880E7-CFE1-4BDA-902E-E24798F3240A";
paths = (
{
closed = 1;
nodes = (
"325 -11 OFFCURVE",
"387 53 OFFCURVE",
"387 152 CURVE SMOOTH",
"387 348 LINE SMOOTH",
"387 447 OFFCURVE",
"325 511 OFFCURVE",
"227 511 CURVE SMOOTH",
"130 511 OFFCURVE",
"68 450 OFFCURVE",
"68 350 CURVE SMOOTH",
"68 150 LINE SMOOTH",
"68 50 OFFCURVE",
"130 -11 OFFCURVE",
"227 -11 CURVE SMOOTH"
);
},
{
closed = 1;
nodes = (
"143 11 OFFCURVE",
"90 64 OFFCURVE",
"90 150 CURVE SMOOTH",
"90 350 LINE SMOOTH",
"90 437 OFFCURVE",
"143 490 OFFCURVE",
"229 490 CURVE SMOOTH",
"315 490 OFFCURVE",
"368 437 OFFCURVE",
"368 350 CURVE SMOOTH",
"368 150 LINE SMOOTH",
"368 64 OFFCURVE",
"315 11 OFFCURVE",
"229 11 CURVE SMOOTH"
);
},
{
closed = 1;
nodes = (
"329 -211 OFFCURVE",
"390 -150 OFFCURVE",
"390 -50 CURVE SMOOTH",
"390 500 LINE",
"368 500 LINE",
"368 -50 LINE SMOOTH",
"368 -137 OFFCURVE",
"315 -190 OFFCURVE",
"229 -190 CURVE",
"229 -211 LINE"
);
}
);
width = 470;
},
{
layerId = "4F25946F-63AC-42D6-8D55-01CF6A99025B";
paths = (
{
closed = 1;
nodes = (
"309 0 OFFCURVE",
"489 138 OFFCURVE",
"489 178 CURVE SMOOTH",
"489 212 LINE SMOOTH",
"489 253 OFFCURVE",
"381 500 OFFCURVE",
"187 500 CURVE",
"84 500 OFFCURVE",
"27 449 OFFCURVE",
"27 350 CURVE SMOOTH",
"27 160 LINE SMOOTH",
"27 69 OFFCURVE",
"67 0 OFFCURVE",
"166 0 CURVE SMOOTH"
);
},
{
closed = 1;
nodes = (
"243 171 OFFCURVE",
"234 181 OFFCURVE",
"234 198 CURVE SMOOTH",
"234 312 LINE SMOOTH",
"234 329 OFFCURVE",
"243 339 OFFCURVE",
"259 339 CURVE SMOOTH",
"275 339 OFFCURVE",
"284 329 OFFCURVE",
"284 312 CURVE SMOOTH",
"284 198 LINE SMOOTH",
"284 181 OFFCURVE",
"275 171 OFFCURVE",
"259 171 CURVE SMOOTH"
);
},
{
closed = 1;
nodes = (
"437 -226 OFFCURVE",
"496 -115 OFFCURVE",
"496 34 CURVE SMOOTH",
"496 500 LINE",
"284 500 LINE",
"284 34 LINE SMOOTH",
"284 -14 OFFCURVE",
"274 -44 OFFCURVE",
"140 -36 CURVE",
"140 -207 LINE"
);
}
);
width = 535;
},
{
layerId = "21D0BE0D-9149-477D-850E-37608F5C3F7D";
paths = (
{
closed = 1;
nodes = (
"317 -6 OFFCURVE",
"384 72 OFFCURVE",
"384 174 CURVE SMOOTH",
"384 326 LINE SMOOTH",
"384 428 OFFCURVE",
"307 506 OFFCURVE",
"204 506 CURVE SMOOTH",
"117 506 OFFCURVE",
"44 453 OFFCURVE",
"44 337 CURVE SMOOTH",
"44 163 LINE SMOOTH",
"44 49 OFFCURVE",
"125 -6 OFFCURVE",
"214 -6 CURVE SMOOTH"
);
},
{
closed = 1;
nodes = (
"172 78 OFFCURVE",
"138 111 OFFCURVE",
"138 163 CURVE SMOOTH",
"138 337 LINE SMOOTH",
"138 390 OFFCURVE",
"172 423 OFFCURVE",
"232 423 CURVE SMOOTH",
"290 423 OFFCURVE",
"326 390 OFFCURVE",
"326 337 CURVE SMOOTH",
"326 163 LINE SMOOTH",
"326 111 OFFCURVE",
"290 78 OFFCURVE",
"232 78 CURVE SMOOTH"
);
},
{
closed = 1;
nodes = (
"336 -207 OFFCURVE",
"430 -163 OFFCURVE",
"430 -17 CURVE SMOOTH",
"430 500 LINE",
"337 500 LINE",
"337 -33 LINE SMOOTH",
"337 -89 OFFCURVE",
"290 -121 OFFCURVE",
"231 -112 CURVE",
"228 -194 LINE"
);
}
);
width = 490;
}
);
unicode = 0067;
},
{
color = 1;
glyphname = h;
lastChange = "2016-10-08 05:03:06 +0000";
layers = (
{
layerId = "262880E7-CFE1-4BDA-902E-E24798F3240A";
paths = (
{
closed = 1;
nodes = (
"402 0 LINE",
"402 350 LINE SMOOTH",
"402 450 OFFCURVE",
"340 511 OFFCURVE",
"243 511 CURVE SMOOTH",
"145 511 OFFCURVE",
"87 450 OFFCURVE",
"87 350 CURVE",
"102 350 LINE",
"102 437 OFFCURVE",
"156 490 OFFCURVE",
"241 490 CURVE SMOOTH",
"326 490 OFFCURVE",
"380 437 OFFCURVE",
"380 350 CURVE SMOOTH",
"380 0 LINE"
);
},
{
closed = 1;
nodes = (
"102 0 LINE",
"102 700 LINE",
"80 700 LINE",
"80 0 LINE"
);
}
);
width = 476;
},
{
layerId = "4F25946F-63AC-42D6-8D55-01CF6A99025B";
paths = (
{
closed = 1;
nodes = (
"505 0 LINE",
"505 350 LINE SMOOTH",
"505 441 OFFCURVE",
"467 510 OFFCURVE",
"362 510 CURVE SMOOTH",
"225 510 OFFCURVE",
"185 393 OFFCURVE",
"185 292 CURVE",
"247 312 LINE",
"247 329 OFFCURVE",
"256 339 OFFCURVE",
"272 339 CURVE SMOOTH",
"288 339 OFFCURVE",
"297 329 OFFCURVE",
"297 312 CURVE SMOOTH",
"297 0 LINE"
);
},
{
closed = 1;
nodes = (
"247 0 LINE",
"247 700 LINE",
"39 700 LINE",
"39 0 LINE"
);
}
);
width = 538;
},
{
layerId = "21D0BE0D-9149-477D-850E-37608F5C3F7D";
paths = (
{
closed = 1;
nodes = (
"434 -1 LINE",
"434 343 LINE SMOOTH",
"434 451 OFFCURVE",
"382 508 OFFCURVE",
"278 508 CURVE SMOOTH",
"166 508 OFFCURVE",
"111 443 OFFCURVE",
"111 336 CURVE",
"153 336 LINE",
"153 389 OFFCURVE",
"190 422 OFFCURVE",
"248 422 CURVE SMOOTH",
"306 422 OFFCURVE",
"341 389 OFFCURVE",
"341 336 CURVE SMOOTH",
"341 -1 LINE"
);
},
{
closed = 1;
nodes = (
"153 -1 LINE",
"153 699 LINE",
"60 699 LINE",
"60 -1 LINE"
);
}
);
width = 487;
}
);
unicode = 0068;
},
{
color = 1;
glyphname = i;
lastChange = "2016-10-08 05:03:05 +0000";
layers = (
{
layerId = "262880E7-CFE1-4BDA-902E-E24798F3240A";
paths = (
{
closed = 1;
nodes = (
"102 0 LINE",
"102 500 LINE",
"80 500 LINE",
"80 0 LINE"
);
},
{
closed = 1;
nodes = (
"113 659 OFFCURVE",
"132 677 OFFCURVE",
"132 700 CURVE SMOOTH",
"132 722 OFFCURVE",
"113 740 OFFCURVE",
"91 740 CURVE SMOOTH",
"69 740 OFFCURVE",
"50 722 OFFCURVE",
"50 700 CURVE SMOOTH",
"50 677 OFFCURVE",
"68 659 OFFCURVE",
"91 659 CURVE SMOOTH"
);
}
);
width = 182;
},
{
layerId = "4F25946F-63AC-42D6-8D55-01CF6A99025B";
paths = (
{
closed = 1;
nodes = (
"247 0 LINE",
"247 500 LINE",
"39 500 LINE",
"39 0 LINE"
);
},
{
closed = 1;
nodes = (
"202 547 OFFCURVE",
"253 591 OFFCURVE",
"253 656 CURVE",
"253 715 OFFCURVE",
"202 763 OFFCURVE",
"143 763 CURVE SMOOTH",
"84 763 OFFCURVE",
"33 715 OFFCURVE",
"33 656 CURVE SMOOTH",
"33 595 OFFCURVE",
"82 547 OFFCURVE",
"143 547 CURVE SMOOTH"
);
}
);
width = 286;
},
{
layerId = "21D0BE0D-9149-477D-850E-37608F5C3F7D";
paths = (
{
closed = 1;
nodes = (
"153 0 LINE",
"153 500 LINE",
"60 500 LINE",
"60 0 LINE"
);
},
{
closed = 1;
nodes = (
"147 630 OFFCURVE",
"181 662 OFFCURVE",
"181 700 CURVE SMOOTH",
"181 737 OFFCURVE",
"147 769 OFFCURVE",
"107 769 CURVE SMOOTH",
"67 769 OFFCURVE",
"33 737 OFFCURVE",
"33 700 CURVE SMOOTH",
"33 660 OFFCURVE",
"65 630 OFFCURVE",
"107 630 CURVE SMOOTH"
);
}
);
width = 213;
}
);
unicode = 0069;
},
{
color = 1;
glyphname = j;
lastChange = "2016-10-08 05:03:06 +0000";
layers = (
{
layerId = "262880E7-CFE1-4BDA-902E-E24798F3240A";
paths = (
{
closed = 1;
nodes = (
"50 -211 OFFCURVE",
"102 -159 OFFCURVE",
"102 -74 CURVE SMOOTH",
"102 500 LINE",
"80 500 LINE",
"80 -74 LINE SMOOTH",
"80 -146 OFFCURVE",
"37 -190 OFFCURVE",
"-34 -190 CURVE",
"-34 -211 LINE"
);
},
{
closed = 1;
nodes = (
"116 659 OFFCURVE",
"132 675 OFFCURVE",
"132 700 CURVE SMOOTH",
"132 725 OFFCURVE",
"116 740 OFFCURVE",
"91 740 CURVE SMOOTH",
"66 740 OFFCURVE",
"50 725 OFFCURVE",
"50 700 CURVE SMOOTH",
"50 675 OFFCURVE",
"66 659 OFFCURVE",
"91 659 CURVE SMOOTH"
);
}
);
width = 182;
},
{
layerId = "4F25946F-63AC-42D6-8D55-01CF6A99025B";
paths = (
{
closed = 1;
nodes = (
"139 -236 OFFCURVE",
"247 -200 OFFCURVE",
"246 -39 CURVE",
"246 500 LINE",
"38 500 LINE",
"38 -8 LINE",
"38 -40 OFFCURVE",
"-11 -39 OFFCURVE",
"-35 -26 CURVE",
"-45 -201 LINE"
);
},
{
closed = 1;
nodes = (
"201 547 OFFCURVE",
"252 595 OFFCURVE",
"252 656 CURVE",
"252 715 OFFCURVE",
"201 763 OFFCURVE",
"142 763 CURVE SMOOTH",
"83 763 OFFCURVE",
"32 715 OFFCURVE",
"32 656 CURVE SMOOTH",
"32 595 OFFCURVE",
"81 547 OFFCURVE",
"142 547 CURVE SMOOTH"
);
}
);
width = 285;
},
{
layerId = "21D0BE0D-9149-477D-850E-37608F5C3F7D";
paths = (
{
closed = 1;
nodes = (
"88 -180 OFFCURVE",
"153 -120 OFFCURVE",
"153 -28 CURVE SMOOTH",
"153 503 LINE",
"60 503 LINE",
"60 -28 LINE SMOOTH",
"60 -72 OFFCURVE",
"35 -94 OFFCURVE",
"-11 -94 CURVE",
"-11 -180 LINE"
);
},
{
closed = 1;
nodes = (
"151 630 OFFCURVE",
"181 660 OFFCURVE",
"181 700 CURVE SMOOTH",
"181 740 OFFCURVE",
"151 769 OFFCURVE",
"107 769 CURVE SMOOTH",
"64 769 OFFCURVE",
"32 740 OFFCURVE",
"32 700 CURVE SMOOTH",
"32 660 OFFCURVE",
"64 630 OFFCURVE",
"107 630 CURVE SMOOTH"
);
}
);
width = 213;
}
);
unicode = 006A;
},
{
color = 1;
glyphname = k;
lastChange = "2016-10-08 05:03:05 +0000";
layers = (
{
layerId = "262880E7-CFE1-4BDA-902E-E24798F3240A";
paths = (
{
closed = 1;
nodes = (
"360 0 LINE",
"114 250 LINE",
"362 500 LINE",
"331 500 LINE",
"82 250 LINE",
"329 0 LINE"
);
},
{
closed = 1;
nodes = (
"102 1 LINE",
"103 700 LINE",
"81 700 LINE",
"80 1 LINE"
);
}
);
width = 397;
},
{
layerId = "4F25946F-63AC-42D6-8D55-01CF6A99025B";
paths = (
{
closed = 1;
nodes = (
"552 0 LINE",
"388 250 LINE",
"551 500 LINE",
"317 500 LINE",
"182 250 LINE",
"317 0 LINE"
);
},
{
closed = 1;
nodes = (
"247 0 LINE",
"248 700 LINE",
"40 700 LINE",
"39 0 LINE"
);
}
);
width = 557;
},
{
layerId = "21D0BE0D-9149-477D-850E-37608F5C3F7D";
paths = (
{
closed = 1;
nodes = (
"404 0 LINE",
"217 250 LINE",
"403 500 LINE",
"282 500 LINE",
"100 250 LINE",
"281 0 LINE"
);
},
{
closed = 1;
nodes = (
"154 0 LINE",
"155 700 LINE",
"61 700 LINE",
"60 0 LINE"
);
}
);
width = 416;
}
);
unicode = 006B;
},
{
color = 1;
glyphname = l;
lastChange = "2016-10-08 05:03:06 +0000";
layers = (
{
layerId = "262880E7-CFE1-4BDA-902E-E24798F3240A";
paths = (
{
closed = 1;
nodes = (
"102 0 LINE",
"102 700 LINE",
"80 700 LINE",
"80 0 LINE"
);
}
);
width = 182;
},
{
layerId = "4F25946F-63AC-42D6-8D55-01CF6A99025B";
paths = (
{
closed = 1;
nodes = (
"247 0 LINE",
"247 700 LINE",
"39 700 LINE",
"39 0 LINE"
);
}
);
width = 286;
},
{
layerId = "21D0BE0D-9149-477D-850E-37608F5C3F7D";
paths = (
{
closed = 1;
nodes = (
"153 0 LINE",
"153 700 LINE",
"60 700 LINE",
"60 0 LINE"
);
}
);
width = 213;
}
);
unicode = 006C;
},
{
color = 1;
glyphname = m;
lastChange = "2016-10-08 05:03:06 +0000";
layers = (
{
layerId = "262880E7-CFE1-4BDA-902E-E24798F3240A";
paths = (
{
closed = 1;
nodes = (
"682 0 LINE",
"682 350 LINE SMOOTH",
"682 450 OFFCURVE",
"621 511 OFFCURVE",
"527 511 CURVE SMOOTH",
"432 511 OFFCURVE",
"377 450 OFFCURVE",
"377 350 CURVE",
"392 350 LINE",
"392 437 OFFCURVE",
"443 490 OFFCURVE",
"526 490 CURVE SMOOTH",
"609 490 OFFCURVE",
"660 437 OFFCURVE",
"660 350 CURVE SMOOTH",
"660 0 LINE"
);
},
{
closed = 1;
nodes = (
"102 0 LINE",
"102 500 LINE",
"80 500 LINE",
"80 0 LINE"
);
},
{
closed = 1;
nodes = (
"392 0 LINE",
"392 350 LINE",
"392 450 OFFCURVE",
"331 511 OFFCURVE",
"237 511 CURVE SMOOTH",
"142 511 OFFCURVE",
"87 450 OFFCURVE",
"87 350 CURVE",
"102 350 LINE",
"102 437 OFFCURVE",
"153 490 OFFCURVE",
"236 490 CURVE SMOOTH",
"319 490 OFFCURVE",
"370 437 OFFCURVE",
"370 350 CURVE",
"370 0 LINE"
);
}
);
width = 756;
},
{
layerId = "4F25946F-63AC-42D6-8D55-01CF6A99025B";
paths = (
{
closed = 1;
nodes = (
"763 0 LINE",
"763 350 LINE SMOOTH",
"763 441 OFFCURVE",
"725 510 OFFCURVE",
"620 510 CURVE SMOOTH",
"483 510 OFFCURVE",
"443 393 OFFCURVE",
"443 292 CURVE",
"505 292 LINE",
"505 309 OFFCURVE",
"514 319 OFFCURVE",
"530 319 CURVE SMOOTH",
"546 319 OFFCURVE",
"555 309 OFFCURVE",
"555 292 CURVE SMOOTH",
"555 0 LINE"
);
},
{
closed = 1;
nodes = (
"247 0 LINE",
"247 500 LINE",
"39 500 LINE",
"39 0 LINE"
);
},
{
closed = 1;
nodes = (
"505 0 LINE",
"505 350 LINE SMOOTH",
"505 441 OFFCURVE",
"467 510 OFFCURVE",
"362 510 CURVE SMOOTH",
"225 510 OFFCURVE",
"185 393 OFFCURVE",
"185 292 CURVE",
"247 292 LINE",
"247 309 OFFCURVE",
"256 319 OFFCURVE",
"272 319 CURVE SMOOTH",
"288 319 OFFCURVE",
"297 309 OFFCURVE",
"297 292 CURVE SMOOTH",
"297 0 LINE"
);
}
);
width = 796;
},
{
layerId = "21D0BE0D-9149-477D-850E-37608F5C3F7D";
paths = (
{
closed = 1;
nodes = (
"712 0 LINE",
"712 344 LINE SMOOTH",
"712 453 OFFCURVE",
"660 509 OFFCURVE",
"557 509 CURVE SMOOTH",
"444 509 OFFCURVE",
"390 443 OFFCURVE",
"390 337 CURVE",
"432 337 LINE",
"432 390 OFFCURVE",
"467 423 OFFCURVE",
"526 423 CURVE SMOOTH",
"584 423 OFFCURVE",
"618 390 OFFCURVE",
"618 337 CURVE SMOOTH",
"618 0 LINE"
);
},
{
closed = 1;
nodes = (
"153 0 LINE",
"153 500 LINE",
"60 500 LINE",
"60 0 LINE"
);
},
{
closed = 1;
nodes = (
"432 0 LINE",
"432 344 LINE",
"432 453 OFFCURVE",
"381 509 OFFCURVE",
"278 509 CURVE SMOOTH",
"166 509 OFFCURVE",
"111 443 OFFCURVE",
"111 337 CURVE",
"153 337 LINE",
"153 390 OFFCURVE",
"188 423 OFFCURVE",
"246 423 CURVE SMOOTH",
"304 423 OFFCURVE",
"339 390 OFFCURVE",
"339 337 CURVE",
"339 0 LINE"
);
}
);
width = 766;
}
);
unicode = 006D;
},
{
color = 1;
glyphname = n;
lastChange = "2016-10-08 05:03:06 +0000";
layers = (
{
layerId = "262880E7-CFE1-4BDA-902E-E24798F3240A";
paths = (
{
closed = 1;
nodes = (
"402 0 LINE",
"402 350 LINE SMOOTH",
"402 450 OFFCURVE",
"341 511 OFFCURVE",
"242 511 CURVE SMOOTH",
"146 511 OFFCURVE",
"87 450 OFFCURVE",
"87 350 CURVE",
"102 350 LINE",
"102 437 OFFCURVE",
"155 490 OFFCURVE",
"241 490 CURVE SMOOTH",
"327 490 OFFCURVE",
"380 437 OFFCURVE",
"380 350 CURVE SMOOTH",
"380 0 LINE"
);
},
{
closed = 1;
nodes = (
"102 0 LINE",
"102 500 LINE",
"80 500 LINE",
"80 0 LINE"
);
}
);
width = 476;
},
{
layerId = "4F25946F-63AC-42D6-8D55-01CF6A99025B";
paths = (
{
closed = 1;
nodes = (
"505 0 LINE",
"505 350 LINE SMOOTH",
"505 441 OFFCURVE",
"467 510 OFFCURVE",
"362 510 CURVE SMOOTH",
"225 510 OFFCURVE",
"185 393 OFFCURVE",
"185 292 CURVE",
"247 312 LINE",
"247 329 OFFCURVE",
"256 339 OFFCURVE",
"272 339 CURVE SMOOTH",
"288 339 OFFCURVE",
"297 329 OFFCURVE",
"297 312 CURVE SMOOTH",
"297 0 LINE"
);
},
{
closed = 1;
nodes = (
"247 0 LINE",
"247 500 LINE",
"39 500 LINE",
"39 0 LINE"
);
}
);
width = 538;
},
{
layerId = "21D0BE0D-9149-477D-850E-37608F5C3F7D";
paths = (
{
closed = 1;
nodes = (
"434 0 LINE",
"434 344 LINE SMOOTH",
"434 453 OFFCURVE",
"383 509 OFFCURVE",
"278 509 CURVE SMOOTH",
"166 509 OFFCURVE",
"111 443 OFFCURVE",
"111 337 CURVE",
"153 337 LINE",
"153 390 OFFCURVE",
"188 423 OFFCURVE",
"248 423 CURVE SMOOTH",
"306 423 OFFCURVE",
"341 390 OFFCURVE",
"341 337 CURVE SMOOTH",
"341 0 LINE"
);
},
{
closed = 1;
nodes = (
"153 0 LINE",
"153 500 LINE",
"60 500 LINE",
"60 0 LINE"
);
}
);
width = 488;
}
);
unicode = 006E;
},
{
color = 1;
glyphname = o;
lastChange = "2016-10-08 05:03:06 +0000";
layers = (
{
layerId = "262880E7-CFE1-4BDA-902E-E24798F3240A";
paths = (
{
closed = 1;
nodes = (
"328 -11 OFFCURVE",
"390 51 OFFCURVE",
"390 150 CURVE SMOOTH",
"390 350 LINE SMOOTH",
"390 449 OFFCURVE",
"328 511 OFFCURVE",
"229 511 CURVE SMOOTH",
"130 511 OFFCURVE",
"68 449 OFFCURVE",
"68 350 CURVE SMOOTH",
"68 150 LINE SMOOTH",
"68 51 OFFCURVE",
"130 -11 OFFCURVE",
"229 -11 CURVE SMOOTH"
);
},
{
closed = 1;
nodes = (
"142 11 OFFCURVE",
"90 63 OFFCURVE",
"90 150 CURVE SMOOTH",
"90 350 LINE SMOOTH",
"90 437 OFFCURVE",
"142 490 OFFCURVE",
"229 490 CURVE SMOOTH",
"316 490 OFFCURVE",
"368 437 OFFCURVE",
"368 350 CURVE SMOOTH",
"368 150 LINE SMOOTH",
"368 63 OFFCURVE",
"316 11 OFFCURVE",
"229 11 CURVE SMOOTH"
);
}
);
width = 458;
},
{
layerId = "4F25946F-63AC-42D6-8D55-01CF6A99025B";
paths = (
{
closed = 1;
nodes = (
"418 -8 OFFCURVE",
"492 72 OFFCURVE",
"492 247 CURVE",
"492 256 LINE",
"490 430 OFFCURVE",
"416 508 OFFCURVE",
"254 508 CURVE SMOOTH",
"91 508 OFFCURVE",
"18 430 OFFCURVE",
"18 256 CURVE",
"18 247 LINE",
"19 64 OFFCURVE",
"98 -8 OFFCURVE",
"254 -8 CURVE SMOOTH"
);
},
{
closed = 1;
nodes = (
"239 174 OFFCURVE",
"230 185 OFFCURVE",
"230 203 CURVE",
"230 299 LINE",
"230 316 OFFCURVE",
"239 326 OFFCURVE",
"255 326 CURVE SMOOTH",
"271 326 OFFCURVE",
"280 316 OFFCURVE",
"280 299 CURVE",
"280 203 LINE",
"280 185 OFFCURVE",
"271 174 OFFCURVE",
"255 174 CURVE SMOOTH"
);
}
);
width = 510;
},
{
layerId = "21D0BE0D-9149-477D-850E-37608F5C3F7D";
paths = (
{
closed = 1;
nodes = (
"343 -10 OFFCURVE",
"417 59 OFFCURVE",
"417 163 CURVE SMOOTH",
"417 337 LINE SMOOTH",
"417 441 OFFCURVE",
"343 510 OFFCURVE",
"230 510 CURVE SMOOTH",
"117 510 OFFCURVE",
"42 441 OFFCURVE",
"42 337 CURVE SMOOTH",
"42 163 LINE SMOOTH",
"42 59 OFFCURVE",
"117 -10 OFFCURVE",
"230 -10 CURVE SMOOTH"
);
},
{
closed = 1;
nodes = (
"168 78 OFFCURVE",
"136 107 OFFCURVE",
"136 163 CURVE SMOOTH",
"136 337 LINE SMOOTH",
"136 393 OFFCURVE",
"169 423 OFFCURVE",
"230 423 CURVE SMOOTH",
"291 423 OFFCURVE",
"324 393 OFFCURVE",
"324 337 CURVE SMOOTH",
"324 163 LINE SMOOTH",
"324 107 OFFCURVE",
"292 78 OFFCURVE",
"230 78 CURVE SMOOTH"
);
}
);
width = 459;
}
);
unicode = 006F;
},
{
color = 1;
glyphname = r;
lastChange = "2016-10-08 05:03:25 +0000";
layers = (
{
layerId = "262880E7-CFE1-4BDA-902E-E24798F3240A";
paths = (
{
closed = 1;
nodes = (
"102 340 LINE",
"102 427 OFFCURVE",
"152 492 OFFCURVE",
"234 492 CURVE SMOOTH",
"244 492 OFFCURVE",
"261 488 OFFCURVE",
"270 484 CURVE",
"287 497 LINE",
"273 505 OFFCURVE",
"253 511 OFFCURVE",
"234 511 CURVE SMOOTH",
"139 511 OFFCURVE",
"85 438 OFFCURVE",
"85 340 CURVE"
);
},
{
closed = 1;
nodes = (
"102 0 LINE",
"102 500 LINE",
"80 500 LINE",
"80 0 LINE"
);
}
);
width = 320;
},
{
layerId = "4F25946F-63AC-42D6-8D55-01CF6A99025B";
paths = (
{
closed = 1;
nodes = (
"247 268 LINE",
"247 302 OFFCURVE",
"280 317 OFFCURVE",
"306 317 CURVE SMOOTH",
"323 317 OFFCURVE",
"356 310 OFFCURVE",
"360 301 CURVE",
"401 464 LINE",
"398 486 OFFCURVE",
"377 505 OFFCURVE",
"336 505 CURVE SMOOTH",
"232 505 OFFCURVE",
"185 382 OFFCURVE",
"185 268 CURVE"
);
},
{
closed = 1;
nodes = (
"247 0 LINE",
"247 500 LINE",
"39 500 LINE",
"39 0 LINE"
);
}
);
width = 409;
},
{
layerId = "21D0BE0D-9149-477D-850E-37608F5C3F7D";
paths = (
{
closed = 1;
nodes = (
"153 329 LINE",
"153 389 OFFCURVE",
"185 426 OFFCURVE",
"248 426 CURVE SMOOTH",
"272 426 OFFCURVE",
"288 418 OFFCURVE",
"292 413 CURVE",
"318 491 LINE",
"310 501 OFFCURVE",
"276 511 OFFCURVE",
"249 510 CURVE SMOOTH",
"176 507 OFFCURVE",
"125 453 OFFCURVE",
"125 329 CURVE"
);
},
{
closed = 1;
nodes = (
"153 1 LINE",
"153 501 LINE",
"60 501 LINE",
"60 1 LINE"
);
}
);
width = 322;
}
);
unicode = 0072;
},
{
color = 1;
glyphname = s;
lastChange = "2016-10-08 05:03:06 +0000";
layers = (
{
layerId = "262880E7-CFE1-4BDA-902E-E24798F3240A";
paths = (
{
closed = 1;
nodes = (
"312 -11 OFFCURVE",
"378 41 OFFCURVE",
"378 120 CURVE SMOOTH",
"378 208 OFFCURVE",
"294 237 OFFCURVE",
"214 265 CURVE SMOOTH",
"143 290 OFFCURVE",
"76 312 OFFCURVE",
"76 375 CURVE SMOOTH",
"76 444 OFFCURVE",
"132 490 OFFCURVE",
"215 490 CURVE SMOOTH",
"298 490 OFFCURVE",
"354 444 OFFCURVE",
"354 375 CURVE SMOOTH",
"354 374 LINE",
"376 374 LINE",
"376 375 LINE SMOOTH",
"376 457 OFFCURVE",
"312 511 OFFCURVE",
"215 511 CURVE SMOOTH",
"118 511 OFFCURVE",
"54 457 OFFCURVE",
"54 375 CURVE SMOOTH",
"54 295 OFFCURVE",
"133 268 OFFCURVE",
"210 241 CURVE SMOOTH",
"283 216 OFFCURVE",
"356 191 OFFCURVE",
"356 120 CURVE SMOOTH",
"356 55 OFFCURVE",
"298 11 OFFCURVE",
"212 11 CURVE SMOOTH",
"129 11 OFFCURVE",
"74 54 OFFCURVE",
"74 120 CURVE SMOOTH",
"74 121 LINE",
"52 121 LINE",
"52 120 LINE SMOOTH",
"52 42 OFFCURVE",
"116 -11 OFFCURVE",
"212 -11 CURVE SMOOTH"
);
}
);
width = 431;
},
{
layerId = "4F25946F-63AC-42D6-8D55-01CF6A99025B";
paths = (
{
closed = 1;
nodes = (
"360 -10 OFFCURVE",
"435 59 OFFCURVE",
"435 150 CURVE SMOOTH",
"435 212 OFFCURVE",
"401 267 OFFCURVE",
"317 294 CURVE SMOOTH",
"270 309 OFFCURVE",
"200 318 OFFCURVE",
"200 347 CURVE SMOOTH",
"200 355 OFFCURVE",
"206 369 OFFCURVE",
"222 369 CURVE SMOOTH",
"235 369 OFFCURVE",
"247 361 OFFCURVE",
"249 343 CURVE",
"249 334 LINE",
"427 334 LINE",
"427 343 LINE",
"424 440 OFFCURVE",
"350 510 OFFCURVE",
"221 510 CURVE SMOOTH",
"91 510 OFFCURVE",
"17 440 OFFCURVE",
"17 353 CURVE SMOOTH",
"17 289 OFFCURVE",
"58 236 OFFCURVE",
"137 210 CURVE SMOOTH",
"183 195 OFFCURVE",
"245 186 OFFCURVE",
"245 152 CURVE SMOOTH",
"245 138 OFFCURVE",
"235 129 OFFCURVE",
"222 129 CURVE SMOOTH",
"208 129 OFFCURVE",
"199 138 OFFCURVE",
"199 152 CURVE SMOOTH",
"199 168 LINE",
"16 168 LINE",
"16 158 LINE",
"16 64 OFFCURVE",
"96 -10 OFFCURVE",
"230 -10 CURVE SMOOTH"
);
}
);
width = 450;
},
{
layerId = "21D0BE0D-9149-477D-850E-37608F5C3F7D";
paths = (
{
closed = 1;
nodes = (
"327 -10 OFFCURVE",
"407 49 OFFCURVE",
"407 138 CURVE SMOOTH",
"407 233 OFFCURVE",
"315 266 OFFCURVE",
"228 294 CURVE SMOOTH",
"158 317 OFFCURVE",
"124 326 OFFCURVE",
"124 362 CURVE SMOOTH",
"124 398 OFFCURVE",
"159 429 OFFCURVE",
"218 429 CURVE SMOOTH",
"277 429 OFFCURVE",
"311 397 OFFCURVE",
"311 357 CURVE SMOOTH",
"311 352 LINE",
"405 352 LINE",
"405 357 LINE SMOOTH",
"405 449 OFFCURVE",
"329 510 OFFCURVE",
"218 510 CURVE SMOOTH",
"107 510 OFFCURVE",
"30 448 OFFCURVE",
"30 361 CURVE SMOOTH",
"30 272 OFFCURVE",
"108 243 OFFCURVE",
"201 211 CURVE SMOOTH",
"281 183 OFFCURVE",
"314 170 OFFCURVE",
"314 133 CURVE SMOOTH",
"314 97 OFFCURVE",
"284 72 OFFCURVE",
"222 72 CURVE SMOOTH",
"154 72 OFFCURVE",
"122 102 OFFCURVE",
"122 139 CURVE SMOOTH",
"122 144 LINE",
"29 144 LINE",
"29 139 LINE SMOOTH",
"29 50 OFFCURVE",
"107 -10 OFFCURVE",
"217 -10 CURVE SMOOTH"
);
}
);
width = 437;
}
);
unicode = 0073;
},
{
color = 1;
glyphname = t;
lastChange = "2016-10-08 05:03:06 +0000";
layers = (
{
layerId = "262880E7-CFE1-4BDA-902E-E24798F3240A";
paths = (
{
closed = 1;
nodes = (
"234 21 LINE",
"163 21 OFFCURVE",
"120 72 OFFCURVE",
"120 158 CURVE SMOOTH",
"120 700 LINE",
"98 700 LINE",
"98 158 LINE SMOOTH",
"98 58 OFFCURVE",
"150 -1 OFFCURVE",
"234 -1 CURVE"
);
},
{
closed = 1;
nodes = (
"234 479 LINE",
"234 500 LINE",
"34 500 LINE",
"34 479 LINE"
);
}
);
width = 272;
},
{
layerId = "4F25946F-63AC-42D6-8D55-01CF6A99025B";
paths = (
{
closed = 1;
nodes = (
"310 171 LINE",
"280 166 OFFCURVE",
"259 160 OFFCURVE",
"259 192 CURVE",
"259 700 LINE",
"51 700 LINE",
"51 163 LINE",
"50 2 OFFCURVE",
"128 -24 OFFCURVE",
"302 1 CURVE"
);
},
{
closed = 1;
nodes = (
"325 326 LINE",
"325 500 LINE",
"15 500 LINE",
"15 326 LINE"
);
}
);
width = 346;
},
{
layerId = "21D0BE0D-9149-477D-850E-37608F5C3F7D";
paths = (
{
closed = 1;
nodes = (
"245 86 LINE",
"227 85 OFFCURVE",
"167 86 OFFCURVE",
"167 154 CURVE SMOOTH",
"167 692 LINE",
"73 692 LINE",
"73 132 LINE SMOOTH",
"73 20 OFFCURVE",
"155 -9 OFFCURVE",
"245 0 CURVE"
);
},
{
closed = 1;
nodes = (
"264 417 LINE",
"264 500 LINE",
"14 500 LINE",
"14 417 LINE"
);
}
);
width = 286;
}
);
unicode = 0074;
},
{
color = 1;
glyphname = u;
lastChange = "2016-10-08 05:03:06 +0000";
layers = (
{
layerId = "262880E7-CFE1-4BDA-902E-E24798F3240A";
paths = (
{
closed = 1;
nodes = (
"336 -11 OFFCURVE",
"392 50 OFFCURVE",
"392 150 CURVE",
"375 150 LINE",
"375 63 OFFCURVE",
"322 10 OFFCURVE",
"236 10 CURVE SMOOTH",
"150 10 OFFCURVE",
"97 63 OFFCURVE",
"97 150 CURVE SMOOTH",
"97 500 LINE",
"75 500 LINE",
"75 150 LINE SMOOTH",
"75 50 OFFCURVE",
"136 -11 OFFCURVE",
"236 -11 CURVE SMOOTH"
);
},
{
closed = 1;
nodes = (
"397 0 LINE",
"397 500 LINE",
"375 500 LINE",
"375 0 LINE"
);
}
);
width = 477;
},
{
layerId = "4F25946F-63AC-42D6-8D55-01CF6A99025B";
paths = (
{
closed = 1;
nodes = (
"320 -10 OFFCURVE",
"354 108 OFFCURVE",
"354 208 CURVE",
"292 188 LINE",
"292 171 OFFCURVE",
"283 161 OFFCURVE",
"267 161 CURVE SMOOTH",
"251 161 OFFCURVE",
"242 171 OFFCURVE",
"242 188 CURVE SMOOTH",
"242 500 LINE",
"34 500 LINE",
"34 150 LINE SMOOTH",
"34 53 OFFCURVE",
"55 -10 OFFCURVE",
"167 -10 CURVE SMOOTH"
);
},
{
closed = 1;
nodes = (
"500 0 LINE",
"500 500 LINE",
"292 500 LINE",
"292 0 LINE"
);
}
);
width = 539;
},
{
layerId = "21D0BE0D-9149-477D-850E-37608F5C3F7D";
paths = (
{
closed = 1;
nodes = (
"322 -9 OFFCURVE",
"377 57 OFFCURVE",
"377 163 CURVE",
"335 163 LINE",
"335 110 OFFCURVE",
"299 77 OFFCURVE",
"241 77 CURVE SMOOTH",
"181 77 OFFCURVE",
"147 110 OFFCURVE",
"147 163 CURVE SMOOTH",
"147 500 LINE",
"53 500 LINE",
"53 156 LINE SMOOTH",
"53 47 OFFCURVE",
"105 -9 OFFCURVE",
"209 -9 CURVE SMOOTH"
);
},
{
closed = 1;
nodes = (
"428 0 LINE",
"428 500 LINE",
"335 500 LINE",
"335 0 LINE"
);
}
);
width = 488;
}
);
unicode = 0075;
},
{
color = 1;
glyphname = v;
lastChange = "2016-10-08 05:03:06 +0000";
layers = (
{
layerId = "262880E7-CFE1-4BDA-902E-E24798F3240A";
paths = (
{
closed = 1;
nodes = (
"225 0 LINE",
"390 500 LINE",
"368 500 LINE",
"214 35 LINE",
"60 500 LINE",
"38 500 LINE",
"203 0 LINE"
);
}
);
width = 428;
},
{
layerId = "4F25946F-63AC-42D6-8D55-01CF6A99025B";
paths = (
{
closed = 1;
nodes = (
"342 0 LINE",
"486 500 LINE",
"279 500 LINE",
"246 257 LINE",
"213 500 LINE",
"6 500 LINE",
"150 0 LINE"
);
}
);
width = 492;
},
{
layerId = "21D0BE0D-9149-477D-850E-37608F5C3F7D";
paths = (
{
closed = 1;
nodes = (
"253 0 LINE",
"423 500 LINE",
"327 500 LINE",
"218 166 LINE",
"108 500 LINE",
"12 500 LINE",
"182 0 LINE"
);
}
);
width = 435;
}
);
unicode = 0076;
},
{
color = 1;
glyphname = w;
lastChange = "2016-10-08 05:03:06 +0000";
layers = (
{
layerId = "262880E7-CFE1-4BDA-902E-E24798F3240A";
paths = (
{
closed = 1;
nodes = (
"197 0 LINE",
"321 458 LINE",
"445 0 LINE",
"467 0 LINE",
"602 500 LINE",
"580 500 LINE",
"456 42 LINE",
"332 500 LINE",
"310 500 LINE",
"186 42 LINE",
"62 500 LINE",
"40 500 LINE",
"175 0 LINE"
);
}
);
width = 642;
},
{
layerId = "4F25946F-63AC-42D6-8D55-01CF6A99025B";
paths = (
{
closed = 1;
nodes = (
"331 0 LINE",
"367 211 LINE",
"402 0 LINE",
"583 0 LINE",
"727 500 LINE",
"515 500 LINE",
"481 267 LINE",
"445 500 LINE",
"288 500 LINE",
"252 267 LINE",
"218 500 LINE",
"6 500 LINE",
"150 0 LINE"
);
}
);
width = 733;
},
{
layerId = "21D0BE0D-9149-477D-850E-37608F5C3F7D";
paths = (
{
closed = 1;
nodes = (
"234 0 LINE",
"324 296 LINE",
"412 0 LINE",
"487 0 LINE",
"633 500 LINE",
"539 500 LINE",
"451 204 LINE",
"362 500 LINE",
"286 500 LINE",
"197 204 LINE",
"109 500 LINE",
"14 500 LINE",
"159 0 LINE"
);
}
);
width = 647;
}
);
unicode = 0077;
},
{
color = 1;
glyphname = x;
lastChange = "2016-10-08 05:03:06 +0000";
layers = (
{
layerId = "262880E7-CFE1-4BDA-902E-E24798F3240A";
paths = (
{
closed = 1;
nodes = (
"368 500 LINE",
"390 500 LINE",
"60 0 LINE",
"38 0 LINE"
);
},
{
closed = 1;
nodes = (
"38 500 LINE",
"60 500 LINE",
"390 0 LINE",
"368 0 LINE"
);
}
);
width = 428;
},
{
layerId = "4F25946F-63AC-42D6-8D55-01CF6A99025B";
paths = (
{
closed = 1;
nodes = (
"518 500 LINE",
"296 500 LINE",
"6 0 LINE",
"228 0 LINE"
);
},
{
closed = 1;
nodes = (
"228 500 LINE",
"6 500 LINE",
"296 0 LINE",
"518 0 LINE"
);
}
);
width = 524;
},
{
layerId = "21D0BE0D-9149-477D-850E-37608F5C3F7D";
paths = (
{
closed = 1;
nodes = (
"14 500 LINE",
"119 500 LINE",
"419 0 LINE",
"314 0 LINE"
);
},
{
closed = 1;
nodes = (
"314 500 LINE",
"419 500 LINE",
"119 0 LINE",
"14 0 LINE"
);
}
);
width = 433;
}
);
unicode = 0078;
},
{
color = 1;
glyphname = y;
lastChange = "2016-10-08 05:03:05 +0000";
layers = (
{
layerId = "262880E7-CFE1-4BDA-902E-E24798F3240A";
paths = (
{
closed = 1;
nodes = (
"134 -211 OFFCURVE",
"169 -174 OFFCURVE",
"202 -73 CURVE",
"392 500 LINE",
"370 500 LINE",
"182 -67 LINE SMOOTH",
"151 -160 OFFCURVE",
"122 -190 OFFCURVE",
"66 -190 CURVE",
"66 -211 LINE"
);
},
{
closed = 1;
nodes = (
"217 28 LINE",
"60 500 LINE",
"38 500 LINE",
"206 -7 LINE"
);
}
);
width = 430;
},
{
layerId = "4F25946F-63AC-42D6-8D55-01CF6A99025B";
paths = (
{
closed = 1;
nodes = (
"165 -167 OFFCURVE",
"247 -142 OFFCURVE",
"299 16 CURVE SMOOTH",
"459 500 LINE",
"257 500 LINE",
"140 82 LINE SMOOTH",
"122 17 OFFCURVE",
"93 -2 OFFCURVE",
"49 4 CURVE",
"49 -157 LINE"
);
},
{
closed = 1;
nodes = (
"303 141 LINE",
"207 500 LINE",
"5 500 LINE",
"173 -7 LINE"
);
}
);
width = 464;
},
{
layerId = "21D0BE0D-9149-477D-850E-37608F5C3F7D";
paths = (
{
closed = 1;
nodes = (
"162 -207 OFFCURVE",
"215 -162 OFFCURVE",
"252 -60 CURVE",
"444 480 LINE",
"347 480 LINE",
"163 -33 LINE SMOOTH",
"139 -101 OFFCURVE",
"114 -116 OFFCURVE",
"81 -115 CURVE",
"81 -202 LINE"
);
},
{
closed = 1;
nodes = (
"268 39 LINE",
"110 480 LINE",
"14 480 LINE",
"221 -105 LINE"
);
}
);
width = 458;
}
);
unicode = 0079;
},
{
color = 1;
glyphname = z;
lastChange = "2016-10-08 05:03:05 +0000";
layers = (
{
layerId = "262880E7-CFE1-4BDA-902E-E24798F3240A";
paths = (
{
closed = 1;
nodes = (
"354 0 LINE",
"354 22 LINE",
"75 22 LINE",
"365 500 LINE",
"45 500 LINE",
"45 479 LINE",
"327 479 LINE",
"37 0 LINE"
);
}
);
width = 402;
},
{
layerId = "4F25946F-63AC-42D6-8D55-01CF6A99025B";
paths = (
{
closed = 1;
nodes = (
"487 0 LINE",
"487 208 LINE",
"352 208 LINE",
"500 500 LINE",
"31 500 LINE",
"31 292 LINE",
"180 292 LINE",
"12 0 LINE"
);
}
);
width = 515;
},
{
layerId = "21D0BE0D-9149-477D-850E-37608F5C3F7D";
paths = (
{
closed = 1;
nodes = (
"380 0 LINE",
"380 87 LINE",
"167 87 LINE",
"394 500 LINE",
"25 500 LINE",
"25 414 LINE",
"245 414 LINE",
"20 0 LINE"
);
}
);
width = 412;
}
);
unicode = 007A;
},
{
color = 1;
glyphname = period;
lastChange = "2016-10-08 05:03:06 +0000";
layers = (
{
layerId = "262880E7-CFE1-4BDA-902E-E24798F3240A";
paths = (
{
closed = 1;
nodes = (
"167 0 OFFCURVE",
"186 18 OFFCURVE",
"186 41 CURVE SMOOTH",
"186 63 OFFCURVE",
"167 81 OFFCURVE",
"145 81 CURVE SMOOTH",
"123 81 OFFCURVE",
"104 63 OFFCURVE",
"104 41 CURVE SMOOTH",
"104 18 OFFCURVE",
"122 0 OFFCURVE",
"145 0 CURVE SMOOTH"
);
}
);
width = 290;
},
{
layerId = "4F25946F-63AC-42D6-8D55-01CF6A99025B";
paths = (
{
closed = 1;
nodes = (
"199 -6 OFFCURVE",
"248 40 OFFCURVE",
"248 99 CURVE",
"248 156 OFFCURVE",
"199 202 OFFCURVE",
"142 202 CURVE SMOOTH",
"85 202 OFFCURVE",
"36 156 OFFCURVE",
"36 99 CURVE SMOOTH",
"36 40 OFFCURVE",
"83 -6 OFFCURVE",
"142 -6 CURVE SMOOTH"
);
}
);
width = 284;
},
{
layerId = "21D0BE0D-9149-477D-850E-37608F5C3F7D";
paths = (
{
closed = 1;
nodes = (
"183 0 OFFCURVE",
"217 32 OFFCURVE",
"217 70 CURVE SMOOTH",
"217 107 OFFCURVE",
"183 139 OFFCURVE",
"143 139 CURVE SMOOTH",
"103 139 OFFCURVE",
"69 107 OFFCURVE",
"69 70 CURVE SMOOTH",
"69 30 OFFCURVE",
"101 0 OFFCURVE",
"143 0 CURVE SMOOTH"
);
}
);
width = 286;
}
);
unicode = 002E;
},
